<svg width="18" height="18" viewBox="0 0 18 18" fill="none" xmlns="http://www.w3.org/2000/svg">
<path d="M17.3166 15.7798C17.2639 12.8881 17.2388 9.99522 17.1241 7.10581C17.012 4.29101 15.4058 2.30619 12.4612 1.1479C10.9118 0.538335 9.26342 0.603769 7.62825 0.682978C3.93331 0.863208 0.79221 3.69981 0.715727 6.92328C0.681441 8.38808 0.710452 9.85402 0.710452 11.32C0.709133 11.32 0.707815 11.32 0.706496 11.32C0.706496 12.8376 0.706496 14.4596 0.706496 15.9566C0.706496 17.1401 1.43705 17.4948 2.49858 17.3433C3.28584 17.2308 3.82386 16.6499 3.87529 15.8556C3.93067 14.9957 4.63617 14.3621 5.54606 14.3552C6.45199 14.3483 7.14825 14.9452 7.23001 15.7936C7.24452 15.9371 7.26034 16.0806 7.29463 16.2206C7.45946 16.8841 8.13463 17.3617 8.90737 17.3674C9.69858 17.3732 10.3896 16.8899 10.5491 16.2057C10.5913 16.0266 10.6019 15.8429 10.6256 15.6604C10.7113 15.0038 11.2955 14.4723 12.0458 14.3667C12.7592 14.2668 13.4898 14.6249 13.8036 15.2253C13.9302 15.4687 13.9592 15.7247 13.9777 15.9876C14.0318 16.7337 14.703 17.3169 15.5417 17.3628C16.5544 17.4191 17.3337 16.7406 17.3166 15.7798ZM7.46737 9.1905C6.58781 10.2007 5.21111 10.2087 4.3065 9.21461C3.2832 8.09076 3.30298 6.15989 4.35001 5.05326C5.19133 4.16359 6.46781 4.13604 7.3421 5.0016C7.96584 5.62035 8.1821 6.36882 8.2032 7.15173C8.1821 7.90823 7.9843 8.59586 7.46737 9.1905ZM13.3197 9.44191C12.4955 10.1364 11.4102 10.1226 10.6006 9.40517C10.0058 8.87826 9.64715 8.02533 9.64979 7.02316C9.68672 6.30109 9.9188 5.51703 10.6256 4.89599C11.4181 4.19918 12.5047 4.19344 13.3118 4.87188C14.6278 5.98081 14.6318 8.33757 13.3197 9.44191Z" fill="#F3F3F5"/>
<path d="M12.0068 7.20489C12.0028 7.83971 11.5228 8.32415 10.9004 8.31956C10.282 8.31496 9.80987 7.82364 9.81251 7.18767C9.81515 6.55744 10.3044 6.06267 10.9202 6.06841C11.5347 6.073 12.0108 6.57007 12.0068 7.20489Z" fill="#F3F3F5"/>
<path d="M5.90428 7.21337C5.8911 7.84475 5.39659 8.32919 4.77681 8.31886C4.16362 8.30853 3.68231 7.80343 3.69154 7.17779C3.70077 6.55674 4.20846 6.05623 4.81769 6.06656C5.42824 6.07804 5.91747 6.59348 5.90428 7.21337Z" fill="#F3F3F5"/>
</svg>
