<svg width="26" height="26" viewBox="0 0 26 26" fill="none" xmlns="http://www.w3.org/2000/svg">
<g id="history" clip-path="url(#clip0_10708_1971)">
<path id="Vector" fill-rule="evenodd" clip-rule="evenodd" d="M2.66978 5.10723L0.693513 3.13097C0.43759 2.87505 0 3.0563 0 3.41824V9.34372C0 9.56808 0.181885 9.74997 0.40625 9.74997H6.33173C6.69365 9.74997 6.8749 9.31237 6.61898 9.05645L4.41187 6.84934C6.3295 4.17656 9.4626 2.4375 13.0001 2.4375C18.8336 2.4375 23.5627 7.16649 23.5627 13C23.5627 18.8336 18.8336 23.5625 13.0001 23.5625C7.53631 23.5625 3.04013 19.4129 2.4935 14.0941C2.42468 13.4246 1.82611 12.9376 1.15653 13.0064C0.486962 13.0752 -4.69214e-05 13.6738 0.0687676 14.3434C0.741847 20.8925 6.27373 26 13.0001 26C20.1797 26 26.0002 20.1797 26.0002 13C26.0002 5.82029 20.1797 0 13.0001 0C8.78753 0 5.04459 2.00364 2.66978 5.10723ZM12.5938 6.5C13.2668 6.5 13.8125 7.04566 13.8125 7.71875V12.5811L17.1088 13.8997C17.7338 14.1497 18.0378 14.8589 17.7879 15.4839C17.5378 16.1088 16.8285 16.4128 16.2036 16.1628L12.1411 14.5378C11.6784 14.3527 11.375 13.9046 11.375 13.4062V7.71875C11.375 7.04566 11.9207 6.5 12.5938 6.5Z" fill="white"/>
</g>
<defs>
<clipPath id="clip0_10708_1971">
<rect width="26" height="26" fill="white"/>
</clipPath>
</defs>
</svg>
