<svg width="26" height="26" viewBox="0 0 26 26" fill="none" xmlns="http://www.w3.org/2000/svg">
<path d="M13.0036 0C20.1892 0 26.0071 5.84079 26 13.0213C25.9929 20.1876 20.1608 26.0071 12.9965 26.0071C5.81794 26 -0.00707994 20.1663 6.45884e-06 12.9787C0.00709286 5.81243 5.8392 0 13.0036 0ZM11.402 10.3277C11.402 11.8233 11.402 13.3119 11.402 14.8075C11.402 14.9635 11.402 15.1265 11.4375 15.2824C11.6075 16.0763 12.3445 16.6221 13.124 16.5442C13.9531 16.4662 14.5767 15.7999 14.5838 14.9635C14.598 14.0916 14.5838 13.2127 14.5838 12.3408C14.5838 10.1576 14.5838 7.97437 14.5838 5.79117C14.5838 5.20992 14.3712 4.73501 13.8964 4.40185C13.3791 4.04744 12.8193 4.012 12.2666 4.29553C11.7138 4.57906 11.4091 5.05398 11.402 5.68484C11.3949 7.23719 11.402 8.78244 11.402 10.3277ZM14.9736 19.9182C14.9807 18.8337 14.1161 17.9547 13.039 17.9406C11.9477 17.9335 11.0619 18.8124 11.0619 19.904C11.0619 20.9815 11.9406 21.8604 13.0106 21.8675C14.0949 21.8675 14.9736 20.9956 14.9736 19.9182Z" fill="#DE3341"/>
</svg>
