<svg width="68" height="68" viewBox="0 0 68 68" fill="none" xmlns="http://www.w3.org/2000/svg">
<g id="Group 5627">
<path id="Subtract" fill-rule="evenodd" clip-rule="evenodd" d="M34 55.0416C45.621 55.0416 55.0416 45.621 55.0416 34C55.0416 22.379 45.621 12.9584 34 12.9584C22.379 12.9584 12.9584 22.379 12.9584 34C12.9584 45.621 22.379 55.0416 34 55.0416ZM34 58.0416C47.2778 58.0416 58.0416 47.2778 58.0416 34C58.0416 20.7222 47.2778 9.95837 34 9.95837C20.7222 9.95837 9.95837 20.7222 9.95837 34C9.95837 47.2778 20.7222 58.0416 34 58.0416Z" fill="#736F84"/>
<g id="Group 5626">
<path id="Vector 44" d="M34.0547 21.9805V46.0221" stroke="#736F84" stroke-width="4"/>
<path id="Vector 45" d="M22.0352 34.002L46.0768 34.002" stroke="#736F84" stroke-width="4"/>
</g>
</g>
</svg>
