<svg width="18" height="21" viewBox="0 0 18 21" fill="none" xmlns="http://www.w3.org/2000/svg">
<path d="M17.7255 12.6943C17.7255 13.7852 17.7473 14.8769 17.72 15.9672C17.6877 17.2584 17.0748 18.193 15.8898 18.7321C15.531 18.8953 15.1493 18.9652 14.7543 18.9652C13.018 18.9652 11.2816 18.9652 9.54531 18.9705C9.44363 18.9708 9.34446 19.0012 9.26005 19.0577C8.64998 19.4672 8.04604 19.8862 7.43903 20.3007C7.14459 20.5018 6.86072 20.7227 6.54984 20.894C6.0147 21.1891 5.34975 20.8389 5.25838 20.2742C5.18679 19.8313 5.14723 19.3831 5.09068 18.9376C5.02271 18.4003 4.94889 17.8635 4.88287 17.3256C4.83022 16.8977 4.78593 16.469 4.73718 16.0408C4.69567 15.677 4.64998 15.3134 4.6121 14.9491C4.59594 14.7925 4.50151 14.7647 4.36584 14.7493C3.78558 14.6841 3.20281 14.6312 2.62812 14.5312C1.87765 14.4003 1.29432 13.9835 0.845545 13.3732C0.449696 12.8344 0.270018 12.2252 0.269182 11.5625C0.266396 9.38518 0.264725 7.20787 0.270296 5.03028C0.272246 4.20878 0.568088 3.49201 1.14529 2.91175C1.70326 2.35099 2.38827 2.04177 3.18944 2.03982C4.91658 2.03537 6.64344 2.03787 8.37057 2.04122C8.53577 2.0415 8.67032 1.99637 8.80765 1.90026C9.48709 1.42474 10.1729 0.958692 10.8588 0.492364C11.0727 0.346951 11.2786 0.176744 11.5131 0.0764582C12.0538 -0.154198 12.6536 0.193458 12.7319 0.719399C12.8007 1.18155 12.8472 1.64704 12.9051 2.11086C13.0166 3.00256 13.1305 3.89427 13.2405 4.78625C13.2882 5.17263 13.3283 5.55984 13.372 5.94678C13.4038 6.22702 13.4077 6.21727 13.6787 6.24959C14.2632 6.31895 14.8518 6.37188 15.4282 6.48553C16.2162 6.64098 16.8129 7.1034 17.2495 7.77281C17.5868 8.29012 17.7258 8.86481 17.7258 9.47711C17.7261 10.5496 17.7258 11.6221 17.7258 12.6943H17.7255ZM14.0133 14.8098C14.2353 14.4593 14.3103 14.0376 14.2501 13.627C14.2467 13.605 14.244 13.5832 14.2412 13.5612C14.1804 13.0601 14.1219 12.5587 14.0632 12.0572C13.9609 11.187 13.8598 10.3167 13.7562 9.44674C13.6826 8.82971 13.6035 8.21351 13.5305 7.59647C13.484 7.20508 13.4431 6.81341 13.4018 6.42146C13.3915 6.32285 13.3584 6.25655 13.2453 6.24708C13.0932 6.23426 12.9419 6.21142 12.7901 6.19331C12.1873 6.12144 11.5844 6.04846 10.9813 5.97854C10.5345 5.92672 10.0871 5.88131 9.6403 5.82894C9.08372 5.76348 8.52797 5.69161 7.97138 5.62642C7.31312 5.54954 6.65486 5.47126 5.99548 5.40524C5.74365 5.38017 5.4857 5.35983 5.23554 5.3849C4.40791 5.46792 3.7268 6.21086 3.72067 7.06998C3.71817 7.39618 3.78335 7.72322 3.8204 8.04971C3.88029 8.57899 3.9413 9.10828 4.00398 9.637C4.08086 10.2861 4.16026 10.9346 4.23826 11.5834C4.33854 12.4166 4.43855 13.2498 4.53911 14.083C4.55973 14.2532 4.58396 14.4229 4.60263 14.5931C4.61349 14.6945 4.65388 14.7532 4.76587 14.7569C4.85334 14.7596 4.93998 14.7819 5.02745 14.7917C5.45115 14.8393 5.87514 14.8836 6.29884 14.9326C6.90223 15.0026 7.50506 15.0769 8.10816 15.1469C8.50401 15.1925 8.90069 15.2313 9.29627 15.2772C9.76538 15.3315 10.2342 15.3906 10.7033 15.4469C11.0897 15.4931 11.4758 15.5399 11.8625 15.5828C12.2711 15.6282 12.6792 15.6987 13.0857 15.5525C13.4759 15.4118 13.7996 15.1477 14.0136 14.8101L14.0133 14.8098Z" fill="#A3A3A4"/>
</svg>
