<svg width="28" height="28" viewBox="0 0 28 28" fill="none" xmlns="http://www.w3.org/2000/svg">
<g id="Frame">
<g id="Group 5979">
<g id="Group">
<path id="Vector" d="M9.98681 3.48609C9.85038 3.56491 9.71406 3.53429 9.58956 3.58674C9.52054 3.61584 9.43586 3.61958 9.36199 3.64949C9.25801 3.69163 9.15251 3.73054 9.05034 3.77682C8.88855 3.85008 8.73606 3.94245 8.59792 4.0525C8.45796 4.16396 8.32558 4.28674 8.20169 4.41599C8.01686 4.6087 7.87953 4.83708 7.75907 5.07365C7.70713 5.17561 7.68025 5.2902 7.64064 5.39853C7.58789 5.54264 7.56283 5.6923 7.53221 5.84216C7.49653 6.01678 7.50058 6.18918 7.50027 6.36249C7.49795 7.69569 7.49906 9.0289 7.49906 10.3622C7.49906 10.4024 7.49906 10.4426 7.49906 10.4948C7.45894 10.4972 7.42357 10.5012 7.3882 10.5013C7.15588 10.5021 6.92356 10.5004 6.69134 10.503C6.5154 10.5049 6.35078 10.5521 6.19738 10.6387C6.13837 10.672 6.07784 10.7028 6.00821 10.7399C6.00478 10.698 5.9979 10.6533 5.9979 10.6087C5.9972 9.84784 5.9974 9.0869 5.9974 8.32607C5.9974 7.67963 5.99558 7.03328 5.99841 6.38684C5.99942 6.1622 5.97951 5.93553 6.04065 5.71433C6.04419 5.7016 6.04328 5.68755 6.04368 5.67411C6.04964 5.50899 6.08703 5.35033 6.13857 5.194C6.15818 5.13448 6.17283 5.07304 6.18667 5.0117C6.23296 4.80747 6.31501 4.61506 6.40596 4.42953C6.5731 4.08827 6.77946 3.77227 7.02977 3.48174C7.22369 3.25659 7.43802 3.05823 7.66924 2.87603C7.8572 2.72788 8.0593 2.60055 8.27293 2.49061C8.41249 2.41886 8.55235 2.34974 8.69978 2.29618C8.82357 2.25111 8.94545 2.19987 9.07096 2.16046C9.15938 2.13267 9.25346 2.12388 9.3433 2.09983C9.48002 2.06335 9.61816 2.04304 9.75933 2.03556C9.83543 2.03152 9.91071 2.00747 9.9866 2.00615C10.2525 2.00161 10.5187 1.99716 10.7844 2.00403C11.0162 2.0102 11.2049 2.1162 11.3422 2.30224C11.4507 2.44907 11.5011 2.6146 11.5009 2.80205C11.4979 4.73794 11.4991 6.67384 11.4991 8.60962C11.4991 8.67026 11.5045 8.73129 11.4987 8.79132C11.4845 8.93502 11.5223 9.07366 11.5568 9.20726C11.5929 9.34722 11.6533 9.48313 11.7287 9.61208C11.8293 9.78407 11.9475 9.93788 12.0989 10.0661C12.2396 10.1852 12.3885 10.2914 12.5645 10.3543C12.6295 10.3776 12.6918 10.4082 12.7554 10.4354C12.7614 10.438 12.7673 10.4417 12.7736 10.4427C12.8922 10.4616 13.0106 10.4951 13.1295 10.4962C13.7085 10.5018 14.2876 10.4998 14.8666 10.4971C14.9285 10.4968 14.9905 10.4742 15.0524 10.4622C15.0721 10.4584 15.0921 10.4534 15.112 10.4528C15.2175 10.45 15.3091 10.4053 15.4042 10.3656C15.4799 10.3341 15.5507 10.2962 15.6231 10.2586C15.786 10.174 15.9215 10.0577 16.0424 9.92434C16.1479 9.80782 16.2333 9.67696 16.3069 9.53578C16.3607 9.43261 16.3977 9.32428 16.4357 9.21736C16.4719 9.1152 16.4807 9.00212 16.4921 8.89278C16.5009 8.80607 16.496 8.71785 16.496 8.63034C16.4961 6.69445 16.4975 4.75856 16.4936 2.82277C16.4933 2.66028 16.5266 2.51173 16.6009 2.37338C16.6623 2.25909 16.756 2.16824 16.8711 2.10367C16.9981 2.03243 17.1327 1.99574 17.2808 2.00039C17.4691 2.00625 17.6578 2.00009 17.8464 2.00322C17.9799 2.00545 18.1144 1.99332 18.2457 2.03687C18.292 2.05223 18.3463 2.04213 18.3962 2.0488C18.449 2.05587 18.5009 2.06881 18.5529 2.08012C18.5726 2.08437 18.5913 2.09478 18.611 2.09629C18.772 2.10852 18.9218 2.16804 19.075 2.21079C19.2108 2.24858 19.3487 2.29244 19.4714 2.35984C19.6362 2.45029 19.8093 2.52496 19.9676 2.63057C20.0895 2.71191 20.217 2.78791 20.3319 2.87774C20.5536 3.05095 20.7638 3.2381 20.9463 3.45506C21.0811 3.61534 21.2112 3.77904 21.3233 3.95538C21.4056 4.08473 21.4756 4.22206 21.5472 4.35788C21.5946 4.44792 21.6389 4.54008 21.6776 4.63416C21.7216 4.74088 21.7602 4.85001 21.7965 4.95966C21.8277 5.05404 21.8543 5.15014 21.8791 5.24655C21.9025 5.3373 21.9289 5.42824 21.94 5.52081C21.9635 5.71706 21.9928 5.91441 21.9937 6.11137C21.9993 7.27622 21.9974 8.44117 21.998 9.60602C21.9982 9.94273 21.9984 10.2793 21.9975 10.6161C21.9974 10.6579 21.9905 10.6998 21.9863 10.7468C21.84 10.6546 21.7017 10.582 21.5419 10.5399C21.4013 10.5028 21.2637 10.5047 21.124 10.5022C20.9523 10.499 20.7806 10.5017 20.6089 10.5013C20.5758 10.5012 20.5428 10.4984 20.4962 10.4963C20.4962 10.4522 20.4962 10.4131 20.4962 10.374C20.4962 9.04082 20.4962 7.70762 20.4962 6.37431C20.4962 6.31034 20.4906 6.24597 20.4962 6.18251C20.5113 6.01264 20.4688 5.84762 20.438 5.68543C20.4101 5.539 20.3639 5.39227 20.3055 5.24998C20.2225 5.04747 20.1225 4.85689 19.9997 4.67701C19.8442 4.44913 19.6534 4.25369 19.4377 4.08402C19.2939 3.97095 19.1377 3.87616 18.9735 3.79168C18.8316 3.71861 18.6805 3.67233 18.5351 3.61069C18.4451 3.57249 18.3414 3.56622 18.2435 3.54723C18.1687 3.53267 18.0935 3.52045 18.0071 3.50519C18.0038 3.56198 17.9982 3.61483 17.9982 3.66758C17.9977 5.31729 17.9979 6.96699 17.9977 8.6167C17.9977 8.71098 18.0021 8.80567 17.9943 8.89935C17.9808 9.06275 17.9655 9.22656 17.9389 9.38825C17.9235 9.48253 17.8743 9.57115 17.8587 9.66544C17.8383 9.78882 17.7865 9.90018 17.7405 10.0125C17.6903 10.135 17.6237 10.2516 17.559 10.3686C17.4823 10.5071 17.3952 10.6369 17.2964 10.7581C17.098 11.0019 16.8757 11.2208 16.6172 11.4042C16.4672 11.5106 16.3073 11.5977 16.1474 11.6846C16.0503 11.7373 15.9402 11.7662 15.8359 11.8056C15.7618 11.8334 15.6891 11.8665 15.613 11.887C15.5171 11.9128 15.4185 11.9287 15.3206 11.9475C15.2549 11.9602 15.1887 11.9708 15.1226 11.9815C15.0829 11.9879 15.0429 11.9974 15.0031 11.9975C14.3331 11.9985 13.6632 11.9987 12.9933 11.9973C12.947 11.9972 12.9006 11.984 12.8546 11.9756C12.8216 11.9696 12.7892 11.9597 12.7562 11.9541C12.6414 11.935 12.5251 11.9225 12.4119 11.8967C12.3353 11.8792 12.2625 11.8444 12.1887 11.8158C12.0968 11.7801 12.0065 11.7403 11.9138 11.7069C11.7622 11.6524 11.6278 11.5663 11.492 11.4827C11.1881 11.2957 10.9386 11.0459 10.7085 10.7786C10.6053 10.6587 10.5126 10.5257 10.4437 10.3791C10.3924 10.27 10.3289 10.1669 10.2775 10.0578C10.2231 9.94212 10.1688 9.82642 10.1431 9.69858C10.1249 9.60794 10.0913 9.52032 10.0645 9.4314C10.0607 9.41856 10.0547 9.40593 10.0534 9.39279C10.0346 9.20261 10.0014 9.01253 10.0007 8.82224C9.9957 7.54623 9.99762 6.27023 9.99742 4.99432C9.99732 4.54655 9.99762 4.09878 9.99701 3.65101C9.99691 3.60442 9.99146 3.55814 9.98681 3.48609Z" fill="white"/>
<path id="Vector_2" d="M19.4965 21.9952C15.8334 21.9952 12.1752 21.9952 8.51727 21.9952C8.49595 21.9258 8.48706 13.1756 8.50808 13.0132C8.58023 12.994 19.3698 12.9888 19.4965 13.009C19.4965 16.0017 19.4965 18.9955 19.4965 21.9952ZM9.50962 14.0047C9.50962 16.3402 9.50962 18.6645 9.50962 20.9979C9.55227 20.9979 9.58865 20.9979 9.62503 20.9979C10.103 20.9979 10.5811 20.9989 11.0591 20.9972C11.1755 20.9968 11.2898 20.9931 11.4069 20.9624C11.5469 20.9257 11.6716 20.8684 11.7913 20.7927C11.9396 20.699 12.0536 20.5671 12.1436 20.423C12.239 20.2704 12.3223 20.1086 12.3656 19.9276C12.3996 19.7856 12.4538 19.6488 12.4573 19.5003C12.4578 19.4802 12.4561 19.458 12.4635 19.4402C12.5071 19.3374 12.4952 19.2288 12.498 19.1221C12.5009 19.0111 12.5045 18.8996 12.4972 18.7889C12.4856 18.6122 12.4655 18.436 12.4481 18.2596C12.4465 18.2433 12.4388 18.2275 12.4339 18.2114C12.408 18.126 12.3854 18.0393 12.3552 17.9555C12.3185 17.8536 12.2847 17.749 12.2328 17.6548C12.1526 17.509 12.0628 17.3673 11.9408 17.2511C11.9002 17.2125 11.9047 17.1871 11.9356 17.1414C11.9834 17.0705 12.0164 16.9896 12.054 16.9121C12.1017 16.8137 12.1466 16.715 12.1673 16.6058C12.1891 16.4917 12.2409 16.38 12.2442 16.2662C12.2532 15.9514 12.2778 15.6362 12.214 15.3214C12.181 15.1582 12.1649 14.9918 12.1022 14.8359C12.0655 14.7448 12.038 14.6465 11.9844 14.5661C11.8654 14.3873 11.7221 14.2328 11.5221 14.1339C11.3649 14.0561 11.206 14.0017 11.0304 14.0015C10.549 14.001 10.0676 14.0008 9.58622 14.0007C9.56298 14.001 9.53994 14.0032 9.50962 14.0047ZM16.0111 14.0058C15.9918 14.1564 15.9986 20.9143 16.0169 20.9888C16.1579 21.0083 18.4236 21.0017 18.4942 20.9816C18.5139 20.764 18.5048 19.5755 18.4805 19.4959C17.9927 19.4959 17.5024 19.4959 17.0084 19.4959C17.0084 18.9953 17.0084 18.5027 17.0084 17.9991C17.424 17.9991 17.8329 17.9991 18.2456 17.9991C18.2456 17.4954 18.2456 17.0026 18.2456 16.4984C17.8294 16.4984 17.4201 16.4984 17.0127 16.4984C16.9922 16.3591 16.9981 15.5734 17.0207 15.4966C17.5088 15.4966 17.9992 15.4966 18.4941 15.4966C18.4941 14.9962 18.4941 14.5035 18.4941 14.0058C17.6648 14.0058 16.8414 14.0058 16.0111 14.0058ZM13.0085 14.0045C13.0085 16.3403 13.0085 18.6649 13.0085 20.9906C13.8417 20.9906 14.6679 20.9906 15.4931 20.9906C15.5122 20.8524 15.5071 19.5772 15.4853 19.4949C14.9952 19.4949 14.5024 19.4949 14.0016 19.4949C14.0016 19.2561 14.0016 19.0275 14.0016 18.7991C14.0016 18.5701 14.0016 18.3412 14.0016 18.1122C14.0016 17.8832 14.0016 17.6543 14.0016 17.4253C14.0016 17.1998 14.0016 16.9741 14.0016 16.7486C14.0016 16.5196 14.0016 16.2907 14.0016 16.0617C14.0016 15.8327 14.0016 15.6038 14.0016 15.3748C14.0016 15.1458 14.0023 14.917 14.0014 14.688C14.0005 14.461 14.0056 14.2338 13.9978 14.0044C13.661 14.0045 13.3388 14.0045 13.0085 14.0045Z" fill="white"/>
<path id="Vector_3" d="M16.3741 23.9988C16.4058 23.9988 16.4393 23.9988 16.4728 23.9988C17.3887 23.9988 18.3045 23.9977 19.2203 24.0008C19.2934 24.001 19.3455 23.9764 19.3963 23.9322C19.6433 23.7169 19.8912 23.5028 20.1378 23.2872C20.2489 23.19 20.3583 23.0912 20.4665 22.9909C20.4835 22.975 20.4956 22.9481 20.4991 22.9247C20.5047 22.8885 20.5013 22.8508 20.5013 22.8138C20.5013 19.1673 20.5013 15.5209 20.5014 11.8743C20.5014 11.8272 20.5003 11.7799 20.5023 11.733C20.5074 11.6118 20.6203 11.4989 20.7414 11.4976C20.9165 11.4957 21.0916 11.4955 21.2667 11.4977C21.3865 11.4992 21.4986 11.6138 21.504 11.7353C21.5053 11.7655 21.5047 11.7959 21.5047 11.8262C21.5047 15.5871 21.5039 19.3482 21.5072 23.1091C21.5074 23.3032 21.4413 23.455 21.3058 23.5836C21.247 23.6394 21.1846 23.6914 21.1236 23.7449C20.8965 23.9442 20.6693 24.1435 20.4421 24.3428C20.2583 24.5041 20.0748 24.6658 19.8904 24.8264C19.7672 24.9336 19.6314 24.9985 19.4597 24.9978C18.4765 24.9937 17.4934 24.9958 16.5102 24.9958C16.4666 24.9958 16.4229 24.9958 16.3839 24.9958C16.3148 25.0867 16.2545 25.1768 16.1834 25.2572C16.0383 25.4211 15.868 25.5536 15.6728 25.6558C15.5182 25.7366 15.3597 25.8033 15.1924 25.8541C15.0388 25.9008 14.8812 25.9229 14.7264 25.9582C14.5218 26.0048 14.3186 25.9971 14.1143 25.9956C14.0145 25.9949 13.9148 25.9739 13.8152 25.9616C13.7885 25.9582 13.7622 25.9504 13.7356 25.9488C13.5918 25.94 13.4566 25.8962 13.3187 25.858C13.1682 25.8162 13.0253 25.7567 12.8866 25.6898C12.7696 25.6334 12.6596 25.5588 12.5554 25.4805C12.4258 25.3832 12.3081 25.2691 12.2162 25.1356C12.1399 25.0248 12.0788 24.905 12.0445 24.7698C12.0203 24.674 12.0037 24.5804 12.0039 24.4828C12.0043 24.3056 12.0594 24.1461 12.141 23.9892C12.2081 23.8601 12.2972 23.752 12.3966 23.6511C12.5357 23.5101 12.699 23.3961 12.8741 23.3092C13.0107 23.2414 13.1511 23.1726 13.3057 23.1424C13.399 23.1243 13.4885 23.087 13.5798 23.0584C13.5862 23.0563 13.5931 23.0551 13.5998 23.0548C13.8078 23.0453 14.0099 22.9807 14.2212 22.9944C14.3886 23.0053 14.5582 22.984 14.7219 23.0388C14.7406 23.045 14.7618 23.0444 14.7819 23.0455C14.9193 23.0529 15.0495 23.09 15.1778 23.1378C15.2424 23.1619 15.3118 23.1732 15.3763 23.1975C15.4652 23.2312 15.5577 23.2618 15.6376 23.3114C15.7731 23.3955 15.9095 23.4778 16.032 23.5842C16.1338 23.6724 16.2147 23.7748 16.2976 23.8774C16.3259 23.9127 16.3466 23.9546 16.3741 23.9988Z" fill="white"/>
<path id="Vector_4" d="M5.99831 17.7543C5.99831 19.4746 5.99831 21.1949 5.99821 22.9153C5.99821 23.0121 5.9971 23.1061 5.95344 23.1994C5.90019 23.3132 5.81924 23.3904 5.71394 23.453C5.63421 23.5003 5.54973 23.4969 5.46343 23.5038C5.28931 23.5179 5.12146 23.477 4.95665 23.4386C4.83073 23.4093 4.70371 23.372 4.58285 23.3127C4.48119 23.263 4.37508 23.2212 4.27908 23.1598C4.1662 23.0878 4.05039 23.019 3.94429 22.9378C3.69458 22.7467 3.48015 22.5217 3.28744 22.2715C3.11797 22.0514 2.97235 21.8192 2.84128 21.5756C2.74589 21.3984 2.65767 21.2185 2.58875 21.029C2.55075 20.9245 2.49608 20.8259 2.46051 20.7207C2.41605 20.5894 2.38442 20.4538 2.34531 20.3206C2.31914 20.2316 2.28761 20.1441 2.26224 20.0549C2.24133 19.9813 2.22374 19.9066 2.20879 19.8316C2.18716 19.7236 2.16938 19.6148 2.14957 19.5064C2.13936 19.4507 2.12825 19.3951 2.11743 19.3394C2.11491 19.3262 2.11066 19.3132 2.10915 19.2999C2.08823 19.1135 2.06489 18.9273 2.04771 18.7406C2.02952 18.5433 2.0085 18.3456 2.00425 18.1477C1.99768 17.8415 1.9987 17.5349 2.00749 17.2288C2.01375 17.0107 2.03184 16.7924 2.0566 16.5757C2.07479 16.4166 2.11339 16.2601 2.14068 16.102C2.16119 15.9836 2.17402 15.8636 2.19787 15.7459C2.22021 15.6354 2.25244 15.5267 2.28023 15.4173C2.30398 15.3238 2.32682 15.2301 2.35137 15.137C2.36643 15.0796 2.38098 15.0218 2.40089 14.966C2.44293 14.8481 2.48729 14.7311 2.53277 14.6146C2.56985 14.5195 2.60694 14.4241 2.64948 14.3315C2.72184 14.1737 2.79066 14.0136 2.87524 13.8625C2.97771 13.6794 3.08492 13.4973 3.20861 13.3283C3.32958 13.163 3.4657 13.0067 3.6101 12.8612C3.74966 12.7207 3.89871 12.585 4.06151 12.4734C4.18864 12.3862 4.3192 12.2964 4.46957 12.2442C4.57133 12.2088 4.66531 12.1509 4.76737 12.1169C4.86448 12.0844 4.96887 12.0745 5.0678 12.0464C5.21555 12.0045 5.36591 12.0075 5.51689 12.004C5.69626 11.9997 5.90342 12.165 5.9589 12.319C5.99235 12.4118 5.9978 12.5008 5.9978 12.5933C5.99851 14.3136 5.99831 16.0339 5.99831 17.7543ZM4.99232 22.3226C4.99232 19.2663 4.99232 16.2351 4.99232 13.1979C4.95968 13.2009 4.92865 13.1949 4.90794 13.2068C4.77727 13.2821 4.63802 13.3418 4.51625 13.4331C4.35901 13.5508 4.21835 13.6853 4.09284 13.8357C3.95358 14.0025 3.83717 14.1837 3.73642 14.3769C3.62051 14.5992 3.5139 14.8243 3.43851 15.0637C3.42174 15.117 3.40132 15.1691 3.38253 15.2217C3.35595 15.2961 3.32523 15.3693 3.30391 15.4451C3.27784 15.5379 3.26086 15.6333 3.23782 15.7271C3.21013 15.8399 3.17365 15.9511 3.15283 16.065C3.12706 16.2062 3.11362 16.3497 3.09473 16.4921C3.09159 16.5153 3.08745 16.5384 3.08371 16.5615C3.07148 16.6374 3.05552 16.713 3.04784 16.7894C3.03884 16.8797 3.04854 16.9732 3.02945 17.0609C3.00327 17.1811 3.00449 17.3011 2.99984 17.4218C2.98205 17.883 3.01328 18.3423 3.05198 18.8014C3.054 18.8248 3.05754 18.8482 3.06148 18.8713C3.08826 19.0293 3.11494 19.1873 3.14232 19.3452C3.16344 19.4668 3.18527 19.5883 3.2072 19.7098C3.20892 19.7195 3.21458 19.7284 3.21751 19.7379C3.24378 19.8236 3.27066 19.9091 3.29582 19.995C3.33483 20.1282 3.37212 20.2618 3.41113 20.395C3.42497 20.4424 3.43821 20.4905 3.45802 20.5355C3.50167 20.6347 3.54977 20.7319 3.59515 20.8302C3.65002 20.9492 3.69418 21.0744 3.76067 21.1863C3.87557 21.3794 3.99522 21.5701 4.14882 21.7372C4.33688 21.9417 4.54889 22.1144 4.79526 22.243C4.85246 22.2728 4.91531 22.2919 4.99232 22.3226Z" fill="white"/>
<path id="Vector_5" d="M21.9975 17.7519C21.9975 16.0418 21.9975 14.3317 21.9976 12.6217C21.9976 12.5645 21.9925 12.5063 22.001 12.4502C22.0301 12.2572 22.1255 12.113 22.3148 12.0403C22.4911 11.9726 22.6681 11.9934 22.8457 12.0313C22.8589 12.0341 22.8719 12.0394 22.885 12.0394C23.0485 12.0394 23.1972 12.1052 23.3453 12.1582C23.4696 12.2027 23.5897 12.2655 23.7067 12.3334C23.8886 12.4389 24.0567 12.5598 24.2155 12.6962C24.4291 12.8794 24.6166 13.0887 24.7804 13.315C24.9303 13.5221 25.0601 13.745 25.183 13.9696C25.2709 14.1304 25.3331 14.3053 25.4059 14.4743C25.45 14.5765 25.4986 14.6771 25.5343 14.7822C25.5788 14.9135 25.6113 15.0489 25.6507 15.182C25.6771 15.2712 25.7086 15.3589 25.7338 15.4485C25.7536 15.5189 25.7694 15.5906 25.7833 15.6626C25.8065 15.784 25.8275 15.9057 25.8481 16.0276C25.8771 16.1991 25.9049 16.3708 25.9333 16.5424C25.9361 16.5588 25.9402 16.5753 25.9415 16.5919C25.9864 17.1655 26.019 17.7396 25.9879 18.3151C25.977 18.5162 25.9626 18.7175 25.9387 18.9173C25.9197 19.0764 25.8838 19.2334 25.8555 19.3914C25.8537 19.4013 25.8524 19.4114 25.8518 19.4214C25.8419 19.5859 25.7997 19.7438 25.7566 19.9019C25.7321 19.9916 25.7206 20.0848 25.6971 20.1748C25.6728 20.2672 25.6407 20.3576 25.6127 20.449C25.5894 20.525 25.5676 20.6014 25.5442 20.6773C25.5267 20.734 25.5103 20.7913 25.4883 20.8462C25.4639 20.9069 25.43 20.9639 25.4065 21.0248C25.2998 21.3025 25.1629 21.5639 25.0122 21.8206C24.7799 22.2162 24.4954 22.5652 24.1457 22.8609C23.9878 22.9943 23.8155 23.1055 23.6338 23.2058C23.5037 23.2775 23.3636 23.3223 23.2317 23.3874C23.1734 23.4161 23.1052 23.4268 23.0404 23.4388C22.836 23.4765 22.6303 23.5276 22.4223 23.494C22.2523 23.4665 22.1247 23.3673 22.0453 23.2065C21.998 23.1108 21.9979 23.0128 21.9979 22.9125C21.9975 21.1923 21.9975 19.472 21.9975 17.7519ZM23.0019 22.3014C23.0255 22.3014 23.0387 22.3026 23.0516 22.3011C23.0648 22.2996 23.079 22.2979 23.0908 22.2921C23.2501 22.2139 23.4053 22.129 23.5441 22.0167C23.7383 21.8596 23.9099 21.6817 24.049 21.4738C24.1253 21.3598 24.2029 21.2469 24.2593 21.1203C24.3137 20.998 24.3811 20.8817 24.4378 20.7604C24.4783 20.674 24.5141 20.5851 24.5453 20.495C24.5883 20.3703 24.6252 20.2435 24.6644 20.1175C24.692 20.029 24.7204 19.9408 24.7462 19.8519C24.7637 19.7914 24.7804 19.7302 24.7923 19.6684C24.8169 19.5406 24.8342 19.4115 24.8614 19.2844C24.9035 19.0878 24.9255 18.8886 24.9466 18.6894C24.9569 18.5925 24.9606 18.4948 24.9696 18.3978C24.9751 18.338 24.9917 18.2786 24.9921 18.2189C24.9942 17.8992 24.993 17.5795 24.9924 17.2597C24.9923 17.2262 24.9907 17.1924 24.987 17.159C24.9746 17.0491 24.9605 16.9394 24.9481 16.8295C24.9282 16.6531 24.9093 16.4766 24.889 16.3002C24.8872 16.284 24.8776 16.2687 24.8742 16.2524C24.8479 16.1285 24.8228 16.0044 24.7964 15.8804C24.7868 15.8351 24.7756 15.7902 24.764 15.7455C24.7417 15.6584 24.7184 15.5716 24.696 15.4845C24.677 15.4109 24.6642 15.3351 24.6391 15.2636C24.5966 15.1426 24.5471 15.0238 24.4995 14.9046C24.4469 14.773 24.4027 14.637 24.3377 14.5117C24.2366 14.3168 24.1287 14.1247 23.9963 13.9481C23.8706 13.7805 23.7255 13.632 23.565 13.4973C23.4256 13.3803 23.2672 13.2953 23.1062 13.2144C23.077 13.1997 23.0401 13.2003 23.0019 13.1928C23.0019 16.2355 23.0019 19.2633 23.0019 22.3014Z" fill="white"/>
<path id="Vector_6" d="M7.50335 17.4961C7.50335 19.3917 7.50335 21.2873 7.50325 23.1828C7.50325 23.2559 7.51093 23.3294 7.45182 23.3905C7.39755 23.4466 7.34541 23.4978 7.25961 23.4969C7.08792 23.4952 6.91613 23.4978 6.74444 23.496C6.61863 23.4947 6.50524 23.3806 6.5008 23.2546C6.49948 23.2176 6.50019 23.1805 6.50019 23.1435C6.50019 19.3793 6.50019 15.6151 6.50019 11.8508C6.50019 11.8139 6.49948 11.7768 6.5008 11.7398C6.50514 11.6131 6.61772 11.4988 6.74343 11.4975C6.91512 11.4956 7.08691 11.4956 7.2586 11.4975C7.38472 11.4988 7.4981 11.6125 7.50275 11.7388C7.50426 11.7791 7.50345 11.8196 7.50345 11.8599C7.50345 13.7386 7.50345 15.6173 7.50335 17.4961Z" fill="white"/>
<path id="Vector_7" d="M10.5168 19.6984C10.491 19.6133 10.4829 18.1718 10.505 18.011C10.5289 18.0087 10.5546 18.0044 10.5804 18.0043C10.7115 18.0036 10.8428 18.0041 10.974 18.004C11.1358 18.0039 11.2696 18.0615 11.3588 18.2006C11.3919 18.2524 11.4219 18.3092 11.4387 18.3678C11.5053 18.5998 11.5187 18.8402 11.4895 19.0764C11.468 19.2501 11.4403 19.4339 11.2987 19.5664C11.285 19.5792 11.2711 19.5929 11.2549 19.6022C11.1465 19.6648 11.0329 19.7049 10.904 19.6995C10.7767 19.6941 10.6489 19.6984 10.5168 19.6984Z" fill="white"/>
<path id="Vector_8" d="M10.5041 16.0193C10.5041 15.8277 10.5036 15.6362 10.5043 15.4446C10.5047 15.3366 10.5336 15.308 10.6418 15.307C10.7326 15.3062 10.8236 15.3016 10.914 15.3081C11.0648 15.3189 11.1991 15.3726 11.2821 15.5059C11.3158 15.5598 11.3358 15.6271 11.3444 15.6908C11.3721 15.8944 11.3778 16.0999 11.3458 16.3035C11.3196 16.4697 11.2439 16.6083 11.0862 16.6877C11.066 16.6979 11.0408 16.7011 11.0178 16.7022C10.8837 16.7085 10.7496 16.7161 10.6154 16.7172C10.5211 16.718 10.5048 16.6983 10.5044 16.604C10.5035 16.4092 10.5041 16.2143 10.5041 16.0193Z" fill="white"/>
</g>
</g>
</g>
</svg>
