<svg width="27" height="24" viewBox="0 0 27 24" fill="none" xmlns="http://www.w3.org/2000/svg">
<g id="Frame" clip-path="url(#clip0_12047_4513)">
<g id="Group">
<path id="Vector" d="M5.68213 15.7003C5.57869 13.0419 6.73878 11.2991 9.14024 10.6271C9.5023 10.5237 9.88654 10.4646 10.256 10.3834C10.7806 10.2652 10.8988 10.0806 10.9358 9.54155C10.9653 9.10586 10.8323 8.85478 10.4481 8.59632C7.90625 6.88309 7.69197 3.03571 10.0048 1.02709C11.9407 -0.656601 14.852 -0.220909 16.2486 1.97232C17.7485 4.32063 17.0761 7.3114 14.719 8.80309C14.6156 8.86955 14.5269 9.02463 14.5195 9.14278C14.4604 10.1766 14.5417 10.2431 15.5761 10.472C16.1968 10.6049 16.7953 10.8265 17.4973 11.0332C17.3348 11.1588 17.2756 11.2105 17.2091 11.2474C15.4505 12.2074 14.2313 13.6179 13.5515 15.5083C13.5146 15.6117 13.3594 15.7372 13.256 15.7372C10.7732 15.752 8.29049 15.7446 5.81514 15.7446C5.77819 15.7372 5.74125 15.7151 5.68213 15.7003Z" fill="#FEFEFD"/>
<path id="Vector_2" d="M26.703 17.9673C26.703 21.2977 24.006 24.0079 20.6957 24.0079C17.3928 24.0079 14.6958 21.283 14.7031 17.9525C14.7105 14.6147 17.4002 11.934 20.7253 11.9414C24.0282 11.9414 26.703 14.6442 26.703 17.9673ZM18.043 19.0011C18.043 18.3513 18.0504 17.7162 18.0356 17.0811C18.0356 17.0147 17.9543 16.8965 17.8878 16.8817C17.3484 16.7414 16.8016 16.6159 16.2327 16.483C15.9002 17.4799 15.8928 18.4547 16.2401 19.4516C16.846 19.2965 17.4371 19.1488 18.043 19.0011ZM25.1809 16.483C24.5972 16.6233 24.0651 16.7414 23.5331 16.8817C23.4666 16.8965 23.3853 17.0073 23.3779 17.0811C23.3632 17.7162 23.3706 18.3513 23.3706 19.0011C23.9765 19.1488 24.5602 19.2965 25.1809 19.4516C25.5134 18.4547 25.5208 17.4873 25.1809 16.483ZM19.3213 17.118C19.3213 17.6867 19.3213 18.2405 19.3213 18.8091C20.2597 18.8091 21.1612 18.8091 22.0922 18.8091C22.0922 18.2405 22.0922 17.6867 22.0922 17.118C21.1538 17.118 20.2597 17.118 19.3213 17.118ZM20.7031 13.5439C20.1711 14.2602 19.7942 14.9765 19.5799 15.8183C20.3558 15.8183 21.0726 15.8183 21.8484 15.8183C21.5972 14.9839 21.2573 14.2528 20.7031 13.5439ZM21.8927 20.1974C21.8484 20.1679 21.8115 20.1383 21.7671 20.1088C21.0504 20.1088 20.3336 20.1088 19.5652 20.1088C19.8164 20.958 20.1563 21.6891 20.7622 22.4497C21.176 21.6374 21.5307 20.9211 21.8927 20.1974ZM24.6267 15.3162C23.9986 14.4448 23.2671 13.8467 22.3287 13.5217C22.5799 14.1937 22.8238 14.8362 23.0824 15.4787C23.1046 15.5377 23.208 15.619 23.2597 15.6042C23.6957 15.523 24.1316 15.427 24.6267 15.3162ZM19.0923 22.4202C18.8337 21.7408 18.5898 21.091 18.3386 20.4559C18.3164 20.3968 18.1834 20.323 18.1169 20.3303C17.6883 20.4116 17.2672 20.5076 16.7943 20.611C17.4002 21.4897 18.1465 22.0583 19.0923 22.4202ZM16.7943 15.3088C17.112 15.3827 17.3558 15.4491 17.6071 15.5082C18.2721 15.6559 18.2573 15.6485 18.4938 15.006C18.6785 14.5113 18.9002 14.0313 19.1218 13.507C18.1465 13.8614 17.4076 14.4374 16.7943 15.3088ZM22.2991 22.435C23.2671 22.0583 24.0208 21.4971 24.6267 20.611C24.1021 20.4928 23.6292 20.3894 23.1858 20.2934C22.8755 21.0171 22.6021 21.6965 22.2991 22.435Z" fill="#FEFEFD"/>
<path id="Vector_3" d="M0.00770686 15.7373C-0.10313 13.4628 0.990458 12.2739 2.71212 11.8013C2.97074 11.7274 3.24413 11.6905 3.50275 11.6314C3.7392 11.5797 3.98305 11.4911 3.98305 11.2031C3.98305 10.9003 4.12344 10.5828 3.7392 10.3317C2.41655 9.46034 1.89932 8.19019 2.13577 6.64681C2.35005 5.23634 3.14808 4.2468 4.53723 3.80373C5.24658 3.5748 5.94855 3.64127 6.61357 3.9588C6.7244 4.0105 6.84263 4.18773 6.83524 4.30588C6.78352 5.91573 7.22686 7.35573 8.20222 8.63327C8.38695 8.87696 8.20961 9.26834 7.83277 9.4308C7.10125 9.74096 6.43623 10.1471 5.87466 10.7157C4.67023 11.9194 4.19733 13.4259 4.10866 15.08C4.07171 15.7447 4.08649 15.7447 3.43625 15.7447C2.43133 15.7447 1.41903 15.7447 0.414108 15.7447C0.288493 15.7373 0.155489 15.7373 0.00770686 15.7373Z" fill="#FEFEFD"/>
<path id="Vector_4" d="M20.807 10.4871C20.3267 10.5314 19.7947 10.5609 19.3513 10.4502C18.9006 10.3394 18.4499 10.1474 18.0435 9.87417C17.7479 9.67479 17.4006 9.4754 17.2233 9.08402C17.1346 8.8994 17.105 8.78125 17.2454 8.59663C18.1912 7.3634 18.6494 5.96771 18.5829 4.41694C18.5681 4.12894 18.6641 4.0034 18.9154 3.9074C20.6592 3.21325 22.6247 4.21755 23.2011 6.14494C23.5483 7.30432 23.3932 8.41202 22.6838 9.40156C22.2331 10.0292 21.8489 10.3394 20.807 10.4871Z" fill="#FEFEFD"/>
</g>
</g>
<defs>
<clipPath id="clip0_12047_4513">
<rect width="26.7042" height="24" fill="white"/>
</clipPath>
</defs>
</svg>
