<svg width="28" height="28" viewBox="0 0 28 28" fill="none" xmlns="http://www.w3.org/2000/svg">
<g id="Frame">
<g id="Group">
<path id="Vector" d="M2.00781 16.6719C3.47924 16.6719 4.95694 16.6719 6.38454 16.6719C6.54108 17.297 6.65378 17.8909 6.84162 18.466C7.19226 19.5413 7.79336 20.4727 8.58856 21.2854C8.80771 21.5104 8.91415 21.7667 8.79519 22.0731C8.75136 22.1856 8.67622 22.2919 8.58856 22.3794C7.91233 23.0608 7.23609 23.7422 6.5536 24.4173C6.20296 24.7674 5.79597 24.7611 5.44533 24.3986C3.62326 22.5357 2.51499 20.3102 2.11426 17.7346C2.07669 17.472 2.04538 17.2157 2.00781 16.9532C2.00781 16.8594 2.00781 16.7656 2.00781 16.6719Z" fill="#FEFEFD"/>
<path id="Vector_2" d="M2.00626 14.9898C2.0814 14.5022 2.14401 14.0083 2.2442 13.5207C2.66371 11.4765 3.57161 9.67614 4.94286 8.10705C4.96791 8.07579 4.98669 8.04454 5.00548 8.01953C6.0574 9.06976 7.09053 10.1075 8.14245 11.1577C7.17819 12.333 6.60214 13.702 6.43934 15.2711C4.96165 15.2711 3.48396 15.2711 2 15.2711C2.00626 15.1773 2.00626 15.0836 2.00626 14.9898Z" fill="#FEFEFD"/>
<path id="Vector_3" d="M11.8008 15.985C11.8008 15.0785 12.3518 14.2658 13.2033 13.9345C14.0424 13.6032 15.0379 13.797 15.6202 14.5034C16.2714 15.2911 16.885 16.1037 17.4611 16.9477C18.4629 18.4043 19.4272 19.8921 20.3852 21.3737C20.4916 21.5362 20.5605 21.7737 20.5355 21.9613C20.4666 22.4801 19.8968 22.6927 19.4334 22.3926C18.7384 21.9488 18.0371 21.5112 17.3547 21.0423C15.9646 20.0921 14.5808 19.1357 13.1971 18.173C12.9466 17.9979 12.7212 17.7979 12.4958 17.5916C12.0387 17.1727 11.8008 16.6039 11.8008 15.985Z" fill="#FEFEFD"/>
<path id="Vector_4" d="M14.7148 8.43222C14.7148 6.95064 14.7148 5.49408 14.7148 4C17.4824 4.18129 19.893 5.18151 21.953 6.9819C20.9136 8.03213 19.8742 9.06361 18.8223 10.1201C17.6514 9.16363 16.2802 8.5885 14.7148 8.43222Z" fill="#FEFEFD"/>
<path id="Vector_5" d="M23.012 8.03906C24.809 10.0833 25.8046 12.49 25.9987 15.2531C24.521 15.2531 23.0495 15.2531 21.5593 15.2531C21.4028 13.7216 20.8393 12.3525 19.875 11.1835C20.9269 10.1333 21.9663 9.09554 23.012 8.03906Z" fill="#FEFEFD"/>
<path id="Vector_6" d="M9.18775 10.1201C8.14209 9.06986 7.10896 8.03838 6.05078 6.9819C8.11079 5.18776 10.5214 4.19379 13.289 4C13.289 5.48157 13.289 6.95064 13.289 8.42597C11.7424 8.5885 10.3712 9.15112 9.18775 10.1201Z" fill="#FEFEFD"/>
<path id="Vector_7" d="M25.9994 16.6914C25.918 17.9979 25.6487 19.242 25.1666 20.436C24.5718 21.9238 23.7077 23.2366 22.5806 24.3806C22.1987 24.7682 21.8105 24.7744 21.4223 24.3931C21.2156 24.1868 21.0028 23.9805 20.7773 23.7554C20.8525 23.7117 20.9026 23.6742 20.9527 23.6492C21.9482 23.0365 22.2676 21.78 21.6727 20.7735C21.4223 20.3547 21.1405 19.9484 20.8838 19.5295C20.8462 19.467 20.8212 19.3482 20.8525 19.2857C21.2344 18.4793 21.4661 17.6354 21.56 16.7539C21.56 16.7414 21.5725 16.7289 21.5851 16.7039C23.044 16.6914 24.5091 16.6914 25.9994 16.6914Z" fill="#FEFEFD"/>
</g>
</g>
</svg>
