<svg width="20" height="20" viewBox="0 0 20 20" fill="none" xmlns="http://www.w3.org/2000/svg">
<g id="Frame">
<path id="Vector" d="M1 11.1821C1.03235 10.3427 1.38816 9.73044 2.11471 9.39623C2.84872 9.05693 3.54542 9.18704 4.14507 9.73554C5.06321 10.5749 5.96642 11.4321 6.8771 12.2791C7.05127 12.4398 7.22296 12.6031 7.39713 12.7638C7.65839 13.0061 7.89228 12.9934 8.12617 12.723C10.0943 10.4397 12.065 8.15381 14.0381 5.86796C15.3693 4.3245 16.7054 2.77849 18.0366 1.23248C18.2008 1.04114 18.3924 0.946744 18.6413 1.03093C18.8527 1.10237 19.0095 1.29626 18.9996 1.52331C18.9946 1.64577 18.9473 1.77588 18.8826 1.88303C17.3723 4.38828 15.857 6.88843 14.3417 9.39113C12.5974 12.274 10.8532 15.1542 9.11149 18.0345C8.80793 18.5371 8.39241 18.8789 7.81266 18.9733C7.15578 19.0805 6.60838 18.8636 6.19036 18.3407C4.69247 16.4706 3.20453 14.593 1.71162 12.7204C1.43294 12.3709 1.13436 12.0316 1.05474 11.5647C1.02986 11.4295 1.01493 11.2943 1 11.1821Z" fill="#6CDB00"/>
</g>
</svg>
