<svg width="24" height="24" viewBox="0 0 24 24" fill="none" xmlns="http://www.w3.org/2000/svg">
<g id="Frame">
<g id="Group">
<g id="Group 5878">
<path id="Vector" d="M10.1249 12.7348C10.1249 12.6005 10.1249 12.4854 10.1249 12.3741C10.1249 9.84195 10.1287 7.30978 10.1211 4.77378C10.1211 4.53207 10.1665 4.43232 10.4313 4.39395C13.9153 3.89519 17.3992 3.38492 20.8794 2.87465C20.9627 2.86314 21.0421 2.86314 21.1442 2.85547C21.1442 6.15496 21.1442 9.43143 21.1442 12.7309C17.4787 12.7348 13.8245 12.7348 10.1249 12.7348Z" fill="white"/>
<path id="Vector_2" d="M10.1406 21.7441C10.1406 18.9663 10.1406 16.2193 10.1406 13.4531C13.8137 13.4531 17.4679 13.4531 21.1411 13.4531C21.1411 16.7449 21.1411 20.0214 21.1411 23.3478C17.4755 22.8106 13.8213 22.2773 10.1406 21.7441Z" fill="white"/>
<path id="Vector_3" d="M1.17578 5.75157C3.93346 5.34873 6.676 4.94972 9.44125 4.54688C9.44125 7.28622 9.44125 10.0025 9.44125 12.7419C6.69113 12.7419 3.94481 12.7419 1.17578 12.7419C1.17578 10.4169 1.17578 8.10342 1.17578 5.75157Z" fill="white"/>
<path id="Vector_4" d="M9.44794 13.4531C9.44794 16.1848 9.44794 18.8934 9.44794 21.6366C8.84269 21.5484 8.25635 21.4678 7.67001 21.3834C5.61594 21.0842 3.55808 20.7772 1.49645 20.4895C1.23165 20.4511 1.14086 20.3744 1.14464 20.0866C1.15978 17.988 1.15221 15.8855 1.15221 13.7869C1.15221 13.6833 1.15221 13.5797 1.15221 13.457C3.92502 13.4531 6.67135 13.4531 9.44794 13.4531Z" fill="white"/>
</g>
</g>
</g>
</svg>
