<svg width="28" height="28" viewBox="0 0 28 28" fill="none" xmlns="http://www.w3.org/2000/svg">
<g id="Frame">
<g id="Group 5977">
<g id="Group 5869">
<g id="Group">
<g id="Group_2">
<path id="Vector" d="M13.9021 10.0425C15.9527 10.0425 18.0067 10.046 20.054 10.0391C20.2705 10.0391 20.345 10.0773 20.345 10.3239C20.3348 13.4119 20.3247 16.5068 20.345 19.5948C20.3484 20.5361 19.6107 21.2795 18.7207 21.2413C18.4636 21.2308 18.2064 21.2517 17.9492 21.2378C17.7936 21.2274 17.7529 21.2864 17.7563 21.4393C17.7597 22.457 17.7597 23.4713 17.7563 24.489C17.7563 25.1907 17.2894 25.809 16.6667 25.9549C15.9663 26.1181 15.3233 25.8055 15.0154 25.1421C14.9207 24.9406 14.8665 24.7252 14.8665 24.4925C14.8699 23.4852 14.8631 22.4744 14.8699 21.467C14.8699 21.276 14.8124 21.2274 14.6364 21.2308C14.1356 21.2447 13.6382 21.2447 13.1374 21.2308C12.9445 21.2274 12.9073 21.2934 12.9073 21.4775C12.9174 22.4778 12.9106 23.4817 12.9106 24.4786C12.9106 25.2046 12.5046 25.7673 11.8583 25.9444C11.2086 26.1285 10.5622 25.8437 10.2103 25.215C10.0885 24.9927 10.0411 24.753 10.0411 24.4994C10.0411 23.5164 10.0411 22.5299 10.0411 21.5469C10.0411 21.1857 10.0919 21.2482 9.72643 21.2343C9.30006 21.2204 8.87031 21.2968 8.4541 21.1301C7.8653 20.8835 7.53707 20.4389 7.46262 19.7963C7.45247 19.7094 7.45924 19.6191 7.45924 19.5323C7.45924 16.4721 7.45924 13.4188 7.45924 10.3586C7.45924 10.0425 7.45924 10.0425 7.77732 10.0425C9.81441 10.0425 11.8583 10.0425 13.9021 10.0425Z" fill="white"/>
<path id="Vector_2" d="M13.8951 9.46143C11.8309 9.46143 9.76336 9.45796 7.69921 9.4649C7.47926 9.4649 7.40481 9.42322 7.41496 9.1766C7.47249 8.13106 7.80411 7.17931 8.36921 6.3144C8.93093 5.45296 9.66185 4.78603 10.545 4.29279C10.6939 4.20595 10.7041 4.13995 10.6262 4.00101C10.3352 3.47303 10.0544 2.93811 9.77013 2.40665C9.69907 2.27118 9.63139 2.13224 9.80397 2.03846C9.96301 1.95162 10.0375 2.07667 10.1085 2.20519C10.386 2.73317 10.6702 3.25073 10.9477 3.78218C11.0357 3.95933 11.1271 4.00449 11.3233 3.92112C12.8393 3.29588 14.3823 3.2542 15.9457 3.71618C16.1386 3.77523 16.3281 3.8447 16.5108 3.93154C16.6732 4.00796 16.768 3.98364 16.8559 3.80649C17.1097 3.29241 17.3804 2.79222 17.6613 2.29203C17.7324 2.1635 17.7865 1.91688 18.0031 2.02804C18.2264 2.14266 18.0843 2.33718 18.0031 2.48307C17.7425 2.99368 17.4752 3.49735 17.1876 3.99059C17.0996 4.15037 17.1165 4.2129 17.2722 4.29974C18.4125 4.95624 19.3025 5.86978 19.8676 7.09594C20.1755 7.75939 20.3447 8.46105 20.3921 9.19397C20.4056 9.40933 20.3515 9.46143 20.1383 9.46143C18.0538 9.45448 15.9727 9.46143 13.8951 9.46143ZM17.3906 6.54018C17.3872 6.22756 17.1605 6.00178 16.8559 6.00178C16.5615 6.00178 16.3179 6.2484 16.3179 6.54365C16.3179 6.84237 16.5852 7.11679 16.8695 7.10637C17.1673 7.09594 17.394 6.84585 17.3906 6.54018ZM10.4097 6.5506C10.4097 6.84932 10.6533 7.10637 10.9376 7.10637C11.2184 7.10637 11.479 6.84585 11.479 6.55754C11.4824 6.23103 11.2556 5.99483 10.9376 6.00178C10.633 6.00525 10.4097 6.23798 10.4097 6.5506Z" fill="white"/>
<path id="Vector_3" d="M23.7909 14.3538C23.7909 15.3854 23.8011 16.4206 23.7875 17.4487C23.774 18.4318 22.8976 19.116 21.9704 18.8764C21.3681 18.7235 20.8977 18.133 20.8943 17.4696C20.8842 15.3785 20.8842 13.2944 20.8943 11.2068C20.8977 10.4044 21.5779 9.75483 22.3528 9.76177C23.1243 9.76525 23.774 10.4287 23.7808 11.238C23.7977 12.2731 23.7909 13.3117 23.7909 14.3538Z" fill="white"/>
<path id="Vector_4" d="M6.87205 14.3638C6.87205 15.3815 6.87544 16.3958 6.87205 17.4136C6.86528 18.2854 6.25281 18.9211 5.42038 18.9176C4.62855 18.9176 4.00592 18.2646 4.00254 17.4136C3.99915 15.3572 3.99915 13.3009 4.00254 11.2411C4.00254 10.4213 4.65224 9.75092 5.44068 9.75787C6.23589 9.75787 6.86867 10.4144 6.87205 11.2411C6.87544 12.2831 6.87205 13.3252 6.87205 14.3638Z" fill="white"/>
</g>
</g>
</g>
</g>
</g>
</svg>
