<svg width="28" height="28" viewBox="0 0 28 28" fill="none" xmlns="http://www.w3.org/2000/svg">
<g id="Frame">
<g id="Group 5982">
<path id="Vector" d="M26 17.3377C25.9437 17.5899 25.8998 17.8421 25.8247 18.0943C25.2989 19.8914 23.6526 21.1588 21.7935 21.1588C16.598 21.1651 11.4087 21.1714 6.21323 21.1588C4.04113 21.1525 2.23835 19.4563 2.01926 17.262C1.81269 15.2064 3.28997 13.2202 5.36818 12.7662C5.53719 12.7284 5.57475 12.6653 5.57475 12.5077C5.6436 9.32343 8.41037 6.77602 11.5527 7.01563C13.4118 7.15435 14.8703 8.0245 15.9032 9.59456C15.9345 9.6387 15.9658 9.68284 15.9783 9.70806C16.3977 9.55042 16.792 9.36126 17.2114 9.25407C19.5087 8.66135 21.8624 10.1557 22.3381 12.4951C22.3694 12.659 22.4383 12.7221 22.601 12.7599C24.3412 13.113 25.6995 14.5633 25.9562 16.3288C25.9624 16.3792 25.9812 16.436 26 16.4864C26 16.7702 26 17.0539 26 17.3377Z" fill="#FEFEFD"/>
</g>
</g>
</svg>
