<svg width="60" height="60" viewBox="0 0 60 60" fill="none" xmlns="http://www.w3.org/2000/svg">
  <circle cx="30" cy="30" r="28" stroke="#37A8C1" stroke-width="4" />
  <path d="M44.5676 25.9725L38.5666 19.7432C38.4267 19.598 38.2606 19.4828 38.0778 19.4042C37.8951 19.3256 37.6992 19.2852 37.5014 19.2852C37.1018 19.2852 36.7187 19.4499 36.4362 19.7432C36.1537 20.0364 35.995 20.4341 35.995 20.8489C35.995 21.2636 36.1537 21.6613 36.4362 21.9546L39.8868 25.5209H22.4986C22.1007 25.5209 21.7191 25.685 21.4378 25.977C21.1564 26.2691 20.9984 26.6652 20.9984 27.0782C20.9984 27.4913 21.1564 27.8874 21.4378 28.1794C21.7191 28.4715 22.1007 28.6356 22.4986 28.6356H43.5024C43.7986 28.634 44.0878 28.5415 44.3334 28.3697C44.579 28.1979 44.7701 27.9544 44.8827 27.67C44.9976 27.3864 45.029 27.0738 44.9729 26.7717C44.9168 26.4696 44.7758 26.1915 44.5676 25.9725ZM37.5014 31.7503H16.4976C16.2014 31.7518 15.9122 31.8443 15.6666 32.0161C15.421 32.188 15.2299 32.4314 15.1173 32.7158C15.0024 32.9994 14.971 33.312 15.0271 33.6141C15.0832 33.9162 15.2242 34.1943 15.4324 34.4133L21.4334 40.6427C21.5729 40.7886 21.7388 40.9045 21.9217 40.9836C22.1045 41.0626 22.3006 41.1033 22.4986 41.1033C22.6967 41.1033 22.8928 41.0626 23.0756 40.9836C23.2584 40.9045 23.4244 40.7886 23.5638 40.6427C23.7045 40.4979 23.8161 40.3257 23.8922 40.1359C23.9684 39.9461 24.0076 39.7426 24.0076 39.537C24.0076 39.3314 23.9684 39.1278 23.8922 38.938C23.8161 38.7483 23.7045 38.576 23.5638 38.4313L20.1132 34.8649H37.5014C37.8993 34.8649 38.2809 34.7009 38.5622 34.4088C38.8436 34.1168 39.0016 33.7206 39.0016 33.3076C39.0016 32.8946 38.8436 32.4985 38.5622 32.2064C38.2809 31.9143 37.8993 31.7503 37.5014 31.7503Z" fill="#37A8C1" />
</svg>