<svg width="28" height="28" viewBox="0 0 28 28" fill="none" xmlns="http://www.w3.org/2000/svg">
<g id="Frame">
<path id="Vector" d="M11.6929 26C11.6442 26 11.6016 26 11.553 26C11.553 25.4161 11.553 24.8322 11.553 24.224C9.68576 24.224 7.84896 24.224 6 24.224C6 17.3877 6 10.5819 6 3.74557C7.85504 3.74557 9.69184 3.74557 11.553 3.74557C11.553 3.14952 11.553 2.58388 11.553 2C14.9529 2.61429 18.3284 3.2225 21.6979 3.83071C21.6979 10.6244 21.6979 17.3877 21.6979 24.1632C21.631 24.1814 21.5884 24.1997 21.5459 24.2058C18.742 24.7106 15.9382 25.2093 13.1404 25.7141C12.6538 25.8054 12.1733 25.9027 11.6929 26ZM11.5408 22.5697C11.5408 16.8464 11.5408 11.1353 11.5408 5.42423C10.2392 5.42423 8.94982 5.42423 7.66042 5.42423C7.66042 11.1475 7.66042 16.8525 7.66042 22.5697C8.96199 22.5697 10.2392 22.5697 11.5408 22.5697ZM12.6234 14C12.6234 14.4501 12.891 14.8028 13.2377 14.7968C13.5722 14.7907 13.8459 14.444 13.8459 14.0122C13.852 13.5682 13.5783 13.2093 13.2377 13.2032C12.8971 13.1972 12.6234 13.5438 12.6234 14Z" fill="#FEFEFD"/>
</g>
</svg>
