<svg width="28" height="28" viewBox="0 0 28 28" fill="none" xmlns="http://www.w3.org/2000/svg">
<g id="u:exit">
<path id="Vector" d="M4.66602 14.0007C4.66602 14.3101 4.78893 14.6068 5.00772 14.8256C5.22652 15.0444 5.52326 15.1673 5.83268 15.1673H14.6877L12.0043 17.839C11.895 17.9474 11.8082 18.0765 11.749 18.2186C11.6897 18.3608 11.6593 18.5133 11.6593 18.6673C11.6593 18.8213 11.6897 18.9738 11.749 19.116C11.8082 19.2582 11.895 19.3872 12.0043 19.4957C12.1128 19.605 12.2418 19.6918 12.384 19.751C12.5262 19.8103 12.6787 19.8407 12.8327 19.8407C12.9867 19.8407 13.1392 19.8103 13.2814 19.751C13.4235 19.6918 13.5526 19.605 13.661 19.4957L18.3277 14.829C18.4339 14.718 18.5172 14.5872 18.5727 14.444C18.6894 14.1599 18.6894 13.8414 18.5727 13.5573C18.5172 13.4141 18.4339 13.2833 18.3277 13.1723L13.661 8.50565C13.5522 8.39687 13.4231 8.31059 13.281 8.25172C13.1388 8.19284 12.9865 8.16254 12.8327 8.16254C12.6788 8.16254 12.5265 8.19284 12.3844 8.25172C12.2423 8.31059 12.1131 8.39687 12.0043 8.50565C11.8956 8.61443 11.8093 8.74357 11.7504 8.88569C11.6915 9.02782 11.6612 9.18015 11.6612 9.33398C11.6612 9.48782 11.6915 9.64015 11.7504 9.78228C11.8093 9.9244 11.8956 10.0535 12.0043 10.1623L14.6877 12.834H5.83268C5.52326 12.834 5.22652 12.9569 5.00772 13.1757C4.78893 13.3945 4.66602 13.6912 4.66602 14.0007ZM19.8327 2.33398H8.16602C7.23776 2.33398 6.34752 2.70273 5.69114 3.35911C5.03476 4.01549 4.66602 4.90573 4.66602 5.83398V9.33398C4.66602 9.6434 4.78893 9.94015 5.00772 10.1589C5.22652 10.3777 5.52326 10.5007 5.83268 10.5007C6.1421 10.5007 6.43885 10.3777 6.65764 10.1589C6.87643 9.94015 6.99935 9.6434 6.99935 9.33398V5.83398C6.99935 5.52457 7.12227 5.22782 7.34106 5.00903C7.55985 4.79023 7.8566 4.66732 8.16602 4.66732H19.8327C20.1421 4.66732 20.4388 4.79023 20.6576 5.00903C20.8764 5.22782 20.9993 5.52457 20.9993 5.83398V22.1673C20.9993 22.4767 20.8764 22.7735 20.6576 22.9923C20.4388 23.2111 20.1421 23.334 19.8327 23.334H8.16602C7.8566 23.334 7.55985 23.2111 7.34106 22.9923C7.12227 22.7735 6.99935 22.4767 6.99935 22.1673V18.6673C6.99935 18.3579 6.87643 18.0612 6.65764 17.8424C6.43885 17.6236 6.1421 17.5007 5.83268 17.5007C5.52326 17.5007 5.22652 17.6236 5.00772 17.8424C4.78893 18.0612 4.66602 18.3579 4.66602 18.6673V22.1673C4.66602 23.0956 5.03476 23.9858 5.69114 24.6422C6.34752 25.2986 7.23776 25.6673 8.16602 25.6673H19.8327C20.7609 25.6673 21.6512 25.2986 22.3076 24.6422C22.9639 23.9858 23.3327 23.0956 23.3327 22.1673V5.83398C23.3327 4.90573 22.9639 4.01549 22.3076 3.35911C21.6512 2.70273 20.7609 2.33398 19.8327 2.33398Z" fill="#DE3341"/>
</g>
</svg>
