<svg width="18" height="19" viewBox="0 0 18 19" fill="none" xmlns="http://www.w3.org/2000/svg">
<path d="M9 2.12651C11.3855 2.12651 11.7108 2.12651 12.6867 2.12651C13.5542 2.12651 13.988 2.34337 14.3133 2.45181C14.747 2.66868 15.0723 2.77711 15.3976 3.10241C15.7229 3.42771 15.9398 3.75301 16.0482 4.18675C16.1566 4.51205 16.2651 4.94578 16.3735 5.81325C16.3735 6.78916 16.3735 7.00602 16.3735 9.5C16.3735 11.994 16.3735 12.2108 16.3735 13.1867C16.3735 14.0542 16.1566 14.488 16.0482 14.8133C15.8313 15.247 15.7229 15.5723 15.3976 15.8976C15.0723 16.2229 14.747 16.4398 14.3133 16.5482C13.988 16.6566 13.5542 16.7651 12.6867 16.8735C11.7108 16.8735 11.494 16.8735 9 16.8735C6.50602 16.8735 6.28916 16.8735 5.31325 16.8735C4.44578 16.8735 4.01205 16.6566 3.68675 16.5482C3.25301 16.3313 2.92771 16.2229 2.60241 15.8976C2.27711 15.5723 2.06024 15.247 1.95181 14.8133C1.84337 14.488 1.73494 14.0542 1.62651 13.1867C1.62651 12.2108 1.62651 11.994 1.62651 9.5C1.62651 7.00602 1.62651 6.78916 1.62651 5.81325C1.62651 4.94578 1.84337 4.51205 1.95181 4.18675C2.16868 3.75301 2.27711 3.42771 2.60241 3.10241C2.92771 2.77711 3.25301 2.56024 3.68675 2.45181C4.01205 2.34337 4.44578 2.23494 5.31325 2.12651C6.28916 2.12651 6.61446 2.12651 9 2.12651ZM9 0.5C6.50602 0.5 6.28916 0.5 5.31325 0.5C4.33735 0.5 3.68675 0.716868 3.14458 0.933736C2.60241 1.1506 2.06024 1.4759 1.51807 2.01807C0.975904 2.56024 0.759037 2.99398 0.433736 3.64458C0.216868 4.18675 0.108434 4.83735 0 5.81325C0 6.78916 0 7.11446 0 9.5C0 11.994 0 12.2108 0 13.1867C0 14.1627 0.216868 14.8133 0.433736 15.3554C0.650603 15.8976 0.975904 16.4398 1.51807 16.9819C2.06024 17.5241 2.49398 17.741 3.14458 18.0663C3.68675 18.2831 4.33735 18.3916 5.31325 18.5C6.28916 18.5 6.61446 18.5 9 18.5C11.3855 18.5 11.7108 18.5 12.6867 18.5C13.6627 18.5 14.3133 18.2831 14.8554 18.0663C15.3976 17.8494 15.9398 17.5241 16.4819 16.9819C17.0241 16.4398 17.241 16.006 17.5663 15.3554C17.7831 14.8133 17.8916 14.1627 18 13.1867C18 12.2108 18 11.8855 18 9.5C18 7.11446 18 6.78916 18 5.81325C18 4.83735 17.7831 4.18675 17.5663 3.64458C17.3494 3.10241 17.0241 2.56024 16.4819 2.01807C15.9398 1.4759 15.506 1.25904 14.8554 0.933736C14.3133 0.716868 13.6627 0.608434 12.6867 0.5C11.7108 0.5 11.494 0.5 9 0.5Z" fill="white" fill-opacity="0.6"/>
<path d="M9 4.83735C6.39759 4.83735 4.33735 6.89759 4.33735 9.5C4.33735 12.1024 6.39759 14.1627 9 14.1627C11.6024 14.1627 13.6627 12.1024 13.6627 9.5C13.6627 6.89759 11.6024 4.83735 9 4.83735ZM9 12.5361C7.3735 12.5361 5.96386 11.2349 5.96386 9.5C5.96386 7.8735 7.26506 6.46386 9 6.46386C10.6265 6.46386 12.0361 7.76506 12.0361 9.5C12.0361 11.1265 10.6265 12.5361 9 12.5361Z" fill="white" fill-opacity="0.6"/>
<path d="M13.7711 5.81325C14.3699 5.81325 14.8554 5.32778 14.8554 4.72892C14.8554 4.13005 14.3699 3.64458 13.7711 3.64458C13.1722 3.64458 12.6867 4.13005 12.6867 4.72892C12.6867 5.32778 13.1722 5.81325 13.7711 5.81325Z" fill="white" fill-opacity="0.6"/>
</svg>
