<svg width="20" height="20" viewBox="0 0 20 20" fill="none" xmlns="http://www.w3.org/2000/svg">
<g id="UserSquare">
<g id="Group">
<path id="Vector" d="M16.875 7.85267C16.8246 8.12852 16.7943 8.4111 16.7237 8.68022C16.3909 9.91819 15.6614 10.8567 14.5318 11.4589C13.4762 12.0241 12.3601 12.1317 11.207 11.7987C11.1095 11.7718 11.0523 11.792 10.9851 11.8592C10.7027 12.1452 10.4136 12.4244 10.1278 12.7103C10.0169 12.8213 9.89248 12.8752 9.73448 12.8718C9.51596 12.8651 9.29744 12.8718 9.06211 12.8718C9.06211 13.1039 9.06211 13.3259 9.06211 13.548C9.06211 13.8911 8.87049 14.0593 8.53094 14.0122C8.35949 13.9887 8.18468 13.9718 7.99978 13.9517C7.97624 14.1871 7.94935 14.4125 7.9359 14.6379C7.90901 15.0248 7.79134 15.1459 7.39801 15.1795C7.17613 15.1963 6.95425 15.2199 6.7122 15.2434C6.73237 15.415 6.74245 15.5832 6.76935 15.748C6.80297 15.9465 6.7559 16.108 6.60798 16.2459C6.45334 16.3872 6.31214 16.5453 6.16086 16.69C6.0869 16.7606 6.00285 16.8144 5.92217 16.875C5.08843 16.875 4.25806 16.875 3.42433 16.875C3.19236 16.7674 3.12176 16.5823 3.12513 16.3334C3.13521 15.6606 3.13521 14.9911 3.12513 14.3183C3.12176 14.1131 3.18564 13.9618 3.3302 13.8205C4.93043 12.2326 6.51721 10.6415 8.11072 9.05027C8.20149 8.95944 8.22502 8.88543 8.1914 8.75087C7.75772 7.01839 8.16451 5.51131 9.46889 4.2868C10.4337 3.38187 11.607 3.00847 12.9114 3.15648C14.5284 3.34151 15.7051 4.19261 16.438 5.64923C16.6767 6.12692 16.8044 6.63489 16.8515 7.16641C16.8548 7.19669 16.8649 7.22696 16.8716 7.25724C16.875 7.45908 16.875 7.65756 16.875 7.85267ZM8.25864 13.1712C8.25864 12.9458 8.25864 12.7272 8.25864 12.5085C8.262 12.2293 8.42337 12.0712 8.7024 12.0678C8.97471 12.0678 9.24701 12.0712 9.51932 12.0644C9.58656 12.0611 9.66724 12.0274 9.71431 11.9837C10.0169 11.6944 10.3194 11.3984 10.6119 11.0956C10.7901 10.9106 10.975 10.8702 11.217 10.9577C11.7213 11.1461 12.2458 11.2167 12.787 11.1595C14.078 11.0182 15.0495 10.3757 15.6547 9.23192C16.438 7.75848 16.0984 5.989 14.8613 4.85868C13.6611 3.76201 11.7818 3.62408 10.4371 4.5391C9.0453 5.48439 8.48052 7.17987 9.03858 8.77105C9.12935 9.03008 9.08565 9.21847 8.89066 9.41022C7.2669 11.025 5.64986 12.6498 4.02946 14.2679C3.95886 14.3385 3.93196 14.4058 3.93196 14.5C3.93533 14.9743 3.93533 15.4487 3.93533 15.923C3.93533 15.9701 3.93533 16.0172 3.93533 16.071C4.41943 16.071 4.88336 16.0575 5.34729 16.0777C5.56245 16.0845 5.72046 16.0306 5.85829 15.8658C5.92889 15.7817 5.95915 15.711 5.94234 15.6034C5.91208 15.3814 5.88182 15.1593 5.86502 14.9373C5.84484 14.6749 5.98604 14.5135 6.24826 14.4832C6.51049 14.4529 6.77271 14.4293 7.03493 14.4092C7.11225 14.4024 7.1526 14.3856 7.15932 14.2948C7.17613 14.0324 7.20975 13.77 7.23328 13.5076C7.26017 13.2418 7.42827 13.0938 7.69049 13.114C7.87539 13.1241 8.05356 13.151 8.25864 13.1712Z" fill="white"/>
<path id="Vector_2" d="M12.3828 6.4119C12.3862 5.74918 12.9274 5.21094 13.5864 5.21094C14.2486 5.21094 14.7865 5.74918 14.7899 6.4119C14.7933 7.07797 14.2419 7.62631 13.5796 7.61958C12.914 7.61286 12.3795 7.07461 12.3828 6.4119ZM13.9864 6.4119C13.9864 6.18987 13.8082 6.01158 13.583 6.01494C13.3611 6.01494 13.1829 6.19323 13.1863 6.41862C13.1863 6.64065 13.3645 6.81894 13.5897 6.81558C13.8116 6.81558 13.9898 6.63729 13.9864 6.4119Z" fill="white"/>
</g>
</g>
</svg>
