<svg width="28" height="28" viewBox="0 0 28 28" fill="none" xmlns="http://www.w3.org/2000/svg">
<g id="Frame">
<path id="Vector" fill-rule="evenodd" clip-rule="evenodd" d="M2 5V22.4545H16.1794V5H2ZM12.8352 17.2733C12.4352 17.2733 12.0513 17.1159 11.7665 16.835C11.3661 16.3385 11.0179 15.8021 10.7273 15.2344H7.44716C7.15366 15.8038 6.80034 16.3404 6.39319 16.835C6.10899 17.1168 5.72466 17.2744 5.32444 17.2733C5.08804 17.2733 4.33942 17.2733 4.3739 16.4755C4.40837 15.6776 4.91566 12.7423 4.91566 12.7275C5.08166 11.8968 5.80234 11.2928 6.64929 11.2746C7.2009 11.2746 7.67371 11.6637 8.15145 11.9641H10.0033C10.4958 11.6637 10.9588 11.2746 11.5104 11.2746C12.3559 11.2964 13.0746 11.8987 13.244 12.7275C13.244 12.7275 13.7365 15.7219 13.7858 16.4755C13.835 17.229 13.0815 17.2733 12.8401 17.2733H12.8352ZM17.8145 5H19.4496V22.4545H17.8145V5ZM21.0897 5H22.7248V22.4545H21.0897V5ZM24.3649 5H26V22.4545H24.3649V5Z" fill="white"/>
</g>
</svg>
