<svg width="28" height="28" viewBox="0 0 28 28" fill="none" xmlns="http://www.w3.org/2000/svg">
<g id="Frame">
<g id="Group">
<path id="Vector" fill-rule="evenodd" clip-rule="evenodd" d="M14.4589 7.48209C14.7321 7.48463 14.953 7.70552 14.9555 7.97876V15.7708L14.7166 15.8036C14.4606 15.8437 14.2143 15.9311 13.9903 16.0613C13.7874 16.183 13.6093 16.342 13.4655 16.5299L12.6737 17.5654C12.3646 17.9644 12.2294 18.4711 12.2988 18.9711L12.5003 20.4189H2.49667C2.23049 20.4167 2.01243 20.2069 2 19.941V7.97876C2.00254 7.70552 2.22343 7.48463 2.49667 7.48209H14.4589ZM10.7104 11.2305C10.2011 11.3029 9.72138 11.5135 9.32351 11.8397H7.62266C7.22952 11.5083 6.75306 11.2912 6.24511 11.2118C5.47394 11.2315 4.8188 11.7817 4.66608 12.5378C4.66608 12.5378 4.19752 15.2742 4.16941 15.9629C4.1413 16.6517 4.82539 16.6892 5.04092 16.6892C5.40511 16.6877 5.75451 16.5449 6.01552 16.2909C6.37572 15.836 6.68965 15.3463 6.95262 14.829H9.96543C10.2284 15.3463 10.5423 15.836 10.9025 16.2909C11.1635 16.5449 11.5129 16.6877 11.8771 16.6892C12.0974 16.6892 12.8142 16.6892 12.7486 15.9629C12.6831 15.2367 12.3082 12.5612 12.2801 12.5472C12.1274 11.791 11.4722 11.2409 10.7011 11.2212L10.7104 11.2305ZM17.1999 4.74105C17.4732 4.74359 17.694 4.96447 17.6966 5.23771V11.6663C17.5326 11.707 17.3749 11.7701 17.228 11.8537C17.019 11.9762 16.8333 12.1348 16.6798 12.3223L16.4596 12.6081V6.48407C16.4571 6.21083 16.2362 5.98994 15.9629 5.9874H4.74105V5.23771C4.74359 4.96447 4.96447 4.74359 5.23771 4.74105H17.1999ZM19.941 2C20.2142 2.00254 20.4351 2.22343 20.4376 2.49667V11.268L19.1913 11.4367V3.74302C19.1887 3.46978 18.9679 3.2489 18.6946 3.24636H7.48209V2.49667C7.48463 2.22343 7.70552 2.00254 7.97876 2H19.941Z" fill="white"/>
<g id="Group_2">
<path id="Vector_2" fill-rule="evenodd" clip-rule="evenodd" d="M20.9288 12.7188L18.0425 13.1124C17.989 13.1167 17.9374 13.1344 17.8926 13.1639C17.8464 13.1892 17.8064 13.2244 17.7754 13.267L16.993 14.3025C16.9288 14.3885 16.9003 14.4959 16.9133 14.6024L17.2366 16.9452L14.861 17.2685C14.8072 17.2778 14.7551 17.2952 14.7064 17.32C14.6624 17.3485 14.6243 17.385 14.594 17.4278L13.8021 18.4586C13.7366 18.5439 13.7079 18.6519 13.7224 18.7585L14.116 21.6213C14.1308 21.7284 14.1862 21.8257 14.2707 21.8931C14.3581 21.9577 14.4678 21.9847 14.5752 21.9681L17.8551 21.4995L18.3002 24.7794C18.3139 24.8867 18.3716 24.9835 18.4595 25.0465C18.5444 25.113 18.6528 25.1418 18.7594 25.1261L21.641 24.7325C21.7497 24.719 21.8479 24.6614 21.9128 24.5732C21.9128 24.5732 22.6718 23.5799 22.7046 23.5424C22.7342 23.4995 22.7563 23.452 22.7702 23.4018C22.782 23.3478 22.782 23.2919 22.7702 23.2378L22.4469 20.8951L24.8225 20.5671C24.9282 20.5521 25.0239 20.4966 25.0896 20.4125L25.8955 19.3863C25.9263 19.3435 25.95 19.2961 25.9658 19.2458C25.9729 19.1929 25.9729 19.1393 25.9658 19.0865L25.5722 16.2236C25.5586 16.1174 25.5029 16.0211 25.4176 15.9565C25.3308 15.8902 25.2211 15.8616 25.113 15.8769L21.8331 16.3454L21.388 13.0655C21.3752 12.9469 21.3098 12.8403 21.21 12.775C21.1397 12.7223 21.0541 12.6943 20.9663 12.6953H20.9288" fill="url(#paint0_linear_12047_4655)"/>
<path id="Vector_3" fill-rule="evenodd" clip-rule="evenodd" d="M18.0418 13.1132C17.9884 13.1182 17.937 13.1358 17.8918 13.1647C17.8457 13.19 17.8056 13.2252 17.7747 13.2678C17.7422 13.3095 17.7183 13.3573 17.7044 13.4083C17.6925 13.4608 17.6925 13.5152 17.7044 13.5677L18.173 16.8475L14.8931 17.3161C14.8393 17.3255 14.7871 17.3428 14.7385 17.3676C14.6945 17.3961 14.6563 17.4327 14.626 17.4754C14.5926 17.5148 14.5686 17.5613 14.5557 17.6113C14.5439 17.6653 14.5439 17.7212 14.5557 17.7753L14.9446 20.6381C14.9622 20.7441 15.0191 20.8394 15.1039 20.9052C15.1901 20.9689 15.2974 20.9974 15.4038 20.9849L18.6837 20.5163L19.1522 23.7962C19.1647 23.906 19.2222 24.0058 19.3111 24.0715C19.3999 24.1373 19.5121 24.1631 19.6208 24.1429L22.5024 23.7493C22.5568 23.7422 22.6092 23.7247 22.657 23.6978C22.7012 23.6698 22.7408 23.635 22.7742 23.5947C22.8037 23.5518 22.8259 23.5043 22.8398 23.4542C22.8494 23.3999 22.8494 23.3444 22.8398 23.2902L22.3712 20.0103L25.6511 19.5417C25.7058 19.533 25.7582 19.5139 25.8057 19.4855C25.851 19.4589 25.8907 19.4239 25.9229 19.3824C25.9537 19.3396 25.9774 19.2922 25.9932 19.2419C26.0003 19.189 26.0003 19.1354 25.9932 19.0825L25.5996 16.2197C25.586 16.1135 25.5303 16.0172 25.4449 15.9526C25.3582 15.8863 25.2485 15.8576 25.1404 15.8729L21.8605 16.3415L21.4154 13.0616C21.3871 12.8613 21.2147 12.7129 21.0124 12.7149H20.9281L18.0418 13.1132Z" fill="url(#paint1_linear_12047_4655)"/>
<path id="Vector_4" fill-rule="evenodd" clip-rule="evenodd" d="M23.9924 18.7611C23.6507 18.8091 23.3136 18.6463 23.1387 18.3488C22.9638 18.0512 22.9855 17.6776 23.1936 17.4023C23.4018 17.127 23.7554 17.0043 24.0893 17.0915C24.4233 17.1787 24.6717 17.4586 24.7187 17.8005C24.78 18.2654 24.4565 18.6934 23.9924 18.7611ZM23.7019 16.6479C23.1869 16.7173 22.7645 17.0903 22.632 17.5928C22.4994 18.0953 22.6829 18.6281 23.0967 18.9425C23.5105 19.2569 24.073 19.2908 24.5216 19.0284C24.9702 18.766 25.2163 18.2591 25.1451 17.7443C25.0458 17.0451 24.4022 16.5561 23.7019 16.6479ZM19.1523 15.589L19.6536 14.3286L20.5017 15.4015L19.1523 15.589ZM19.5271 13.4805L18.4776 16.1137L21.2889 15.7248L19.5271 13.4805ZM15.9146 19.7497L15.7131 18.2925L17.1703 18.091L17.3718 19.5529L15.9146 19.7497ZM15.2305 17.9317L15.5444 20.2464L17.8544 19.9278L17.5404 17.6178L15.2305 17.9317Z" fill="#C3862C"/>
<path id="Vector_5" fill-rule="evenodd" clip-rule="evenodd" d="M21.04 22.0378L22.0427 22.7968L21.7803 23.1389L20.7823 22.3798L20.0185 23.3825L19.6765 23.1201L20.4355 22.1174L19.4375 21.3584L19.6952 21.0163L20.6979 21.7754L21.457 20.7773L21.799 21.035L21.04 22.0378Z" fill="#C3862C"/>
</g>
</g>
</g>
<defs>
<linearGradient id="paint0_linear_12047_4655" x1="393.812" y1="238.353" x2="1009.32" y2="977.91" gradientUnits="userSpaceOnUse">
<stop stop-color="#C3862C"/>
<stop offset="1" stop-color="#986D29"/>
</linearGradient>
<linearGradient id="paint1_linear_12047_4655" x1="19.1733" y1="279.901" x2="1075.54" y2="1083.08" gradientUnits="userSpaceOnUse">
<stop stop-color="#FDE64E"/>
<stop offset="1" stop-color="#FCC013"/>
</linearGradient>
</defs>
</svg>
