<svg width="22" height="22" viewBox="0 0 22 22" fill="none" xmlns="http://www.w3.org/2000/svg">
<g id="Group 5669">
<g id="Union">
<mask id="path-1-inside-1_9923_1272" fill="white">
<path d="M22 11C22 17.0751 17.0751 22 11 22C4.92487 22 0 17.0751 0 11C0 4.92487 4.92487 0 11 0C17.0751 0 22 4.92487 22 11Z"/>
</mask>
<path d="M20 11C20 15.9706 15.9706 20 11 20V24C18.1797 24 24 18.1797 24 11H20ZM11 20C6.02944 20 2 15.9706 2 11H-2C-2 18.1797 3.8203 24 11 24V20ZM2 11C2 6.02944 6.02944 2 11 2V-2C3.8203 -2 -2 3.8203 -2 11H2ZM11 2C15.9706 2 20 6.02944 20 11H24C24 3.8203 18.1797 -2 11 -2V2Z" fill="#C04BE8" mask="url(#path-1-inside-1_9923_1272)"/>
</g>
<g id="Group 5668">
<path id="Vector 44" d="M11.0312 5.5V16.5" stroke="#C04BE8" stroke-width="2"/>
<path id="Vector 45" d="M5.53125 11L16.5313 11" stroke="#C04BE8" stroke-width="2"/>
</g>
</g>
</svg>
