<svg width="28" height="28" viewBox="0 0 28 28" fill="none" xmlns="http://www.w3.org/2000/svg">
<g id="question" clip-path="url(#clip0_10708_2025)">
<path id="Vector" fill-rule="evenodd" clip-rule="evenodd" d="M14 2.625C7.71776 2.625 2.625 7.71776 2.625 14C2.625 20.2823 7.71776 25.375 14 25.375C20.2823 25.375 25.375 20.2823 25.375 14C25.375 7.71776 20.2823 2.625 14 2.625ZM0 14C0 6.26801 6.26801 0 14 0C21.732 0 28 6.26801 28 14C28 21.732 21.732 28 14 28C6.26801 28 0 21.732 0 14ZM15.75 19.25C15.75 20.2165 14.9665 21 14 21C13.0335 21 12.25 20.2165 12.25 19.25C12.25 18.2835 13.0335 17.5 14 17.5C14.9665 17.5 15.75 18.2835 15.75 19.25ZM12.1114 10.6495C12.2523 10.3677 12.4431 10.1258 12.7046 9.95145C12.9579 9.78257 13.3547 9.625 14 9.625C14.4896 9.625 14.9676 9.77648 15.2906 10.0188C15.5786 10.2347 15.75 10.5177 15.75 10.9375C15.75 11.2466 15.6786 11.3992 15.615 11.4946C15.5356 11.6137 15.3987 11.7453 15.1313 11.9236C14.9976 12.0127 14.8538 12.0993 14.6782 12.2047L14.6675 12.2111L14.6674 12.2112C14.5035 12.3095 14.3098 12.4257 14.1195 12.5526C13.7306 12.8119 13.266 13.1725 12.9079 13.7097C12.5058 14.3129 12.6689 15.1277 13.272 15.5298C13.8752 15.9318 14.6901 15.7688 15.0921 15.1657C15.1715 15.0466 15.3084 14.9149 15.5758 14.7366C15.7094 14.6475 15.8533 14.5609 16.0288 14.4556L16.0397 14.449L16.0398 14.449C16.2037 14.3506 16.3973 14.2345 16.5874 14.1077C16.9763 13.8484 17.441 13.4879 17.7991 12.9507C18.173 12.3899 18.375 11.7222 18.375 10.9375C18.375 9.60734 17.7443 8.57777 16.8656 7.91875C16.022 7.28602 14.9688 7 14 7C12.8953 7 11.9796 7.27993 11.2485 7.7673C10.5257 8.2492 10.0602 8.88233 9.76357 9.47553C9.43938 10.1239 9.70218 10.9123 10.3505 11.2364C10.9989 11.5606 11.7873 11.2978 12.1114 10.6495Z" fill="white"/>
</g>
<defs>
<clipPath id="clip0_10708_2025">
<rect width="28" height="28" fill="white"/>
</clipPath>
</defs>
</svg>
