<svg width="16" height="19" viewBox="0 0 16 19" fill="none" xmlns="http://www.w3.org/2000/svg">
<path d="M15.9997 4.90429C14.8249 4.90426 13.6983 4.44022 12.8676 3.61426C12.037 2.7883 11.5703 1.66806 11.5703 0.5H8.40574V12.8214C8.40515 13.3832 8.22675 13.9305 7.89584 14.3858C7.56493 14.8412 7.09828 15.1814 6.56203 15.3583C6.02579 15.5352 5.44716 15.5397 4.90815 15.3714C4.36914 15.203 3.89709 14.8703 3.55891 14.4202C3.22073 13.9702 3.03358 13.4258 3.02397 12.8641C3.01437 12.3024 3.1828 11.752 3.5054 11.2908C3.828 10.8296 4.28839 10.4811 4.82134 10.2946C5.35428 10.1081 5.93274 10.0932 6.47472 10.2518V7.19308C5.32291 7.03865 4.15114 7.23728 3.11587 7.76245C2.08059 8.28763 1.23109 9.11434 0.680793 10.1322C0.1305 11.1501 -0.0943933 12.3106 0.036145 13.4589C0.166683 14.6072 0.646439 15.6886 1.41135 16.5586C2.17626 17.4287 3.18992 18.046 4.31697 18.3281C5.44403 18.6103 6.63083 18.5438 7.7189 18.1377C8.80698 17.7315 9.74454 17.005 10.4064 16.055C11.0682 15.1051 11.4229 13.977 11.4229 12.8214L11.5153 6.59334C12.8155 7.54242 14.387 8.05308 16 8.05069L15.9997 4.90429Z" fill="white" fill-opacity="0.6"/>
</svg>
