<svg width="28" height="28" viewBox="0 0 28 28" fill="none" xmlns="http://www.w3.org/2000/svg">
<g id="Frame">
<g id="Group">
<g id="Group_2">
<path id="Vector" d="M26.9395 24.5444C26.8574 20.0462 26.8184 15.5462 26.64 11.0515C26.4656 6.67296 23.9672 3.58546 19.3866 1.78367C16.9764 0.835458 14.4123 0.937243 11.8687 1.06046C6.12101 1.34081 1.23485 5.75331 1.11588 10.7676C1.06255 13.0462 1.10767 15.3265 1.10767 17.6069C1.10562 17.6069 1.10357 17.6069 1.10152 17.6069C1.10152 19.9676 1.10152 22.4908 1.10152 24.8194C1.10152 26.6605 2.23793 27.2122 3.88921 26.9765C5.11383 26.8015 5.95075 25.898 6.03075 24.6622C6.1169 23.3247 7.21434 22.339 8.62973 22.3283C10.039 22.3176 11.122 23.2462 11.2492 24.5658C11.2718 24.789 11.2964 25.0122 11.3497 25.2301C11.6061 26.2622 12.6564 27.0051 13.8584 27.014C15.0892 27.023 16.1641 26.2712 16.4123 25.2069C16.4779 24.9283 16.4943 24.6426 16.5313 24.3587C16.6646 23.3372 17.5733 22.5105 18.7405 22.3462C19.8502 22.1908 20.9866 22.748 21.4749 23.6819C21.6718 24.0605 21.7169 24.4587 21.7456 24.8676C21.8297 26.0283 22.8738 26.9355 24.1784 27.0069C25.7538 27.0944 26.9661 26.039 26.9395 24.5444ZM11.6184 14.2944C10.2502 15.8658 8.1087 15.8783 6.70152 14.3319C5.10973 12.5837 5.14049 9.5801 6.76921 7.85867C8.07793 6.47474 10.0636 6.43189 11.4236 7.77831C12.3938 8.74081 12.7302 9.9051 12.7631 11.123C12.7302 12.2997 12.4225 13.3694 11.6184 14.2944ZM20.722 14.6855C19.44 15.7658 17.7518 15.7444 16.4923 14.6283C15.5672 13.8087 15.0092 12.4819 15.0133 10.923C15.0708 9.79974 15.4318 8.5801 16.5313 7.61403C17.7641 6.5301 19.4543 6.52117 20.7097 7.57653C22.7569 9.30153 22.7631 12.9676 20.722 14.6855Z" fill="white"/>
</g>
<path id="Vector_2" d="M20.429 12.9593C20.4228 13.9468 19.6762 14.7004 18.7079 14.6933C17.7459 14.6861 17.0115 13.9218 17.0156 12.9326C17.0197 11.9522 17.7808 11.1826 18.7387 11.1915C19.6946 11.1986 20.4351 11.9718 20.429 12.9593Z" fill="white"/>
<path id="Vector_3" d="M10.9344 12.9717C10.9139 13.9538 10.1447 14.7074 9.1806 14.6913C8.22675 14.6752 7.47803 13.8895 7.49239 12.9163C7.50675 11.9502 8.29649 11.1717 9.24419 11.1877C10.1939 11.2056 10.955 12.0074 10.9344 12.9717Z" fill="white"/>
</g>
</g>
</svg>
