<svg width="27" height="24" viewBox="0 0 27 24" fill="none" xmlns="http://www.w3.org/2000/svg">
<path id="Vector" d="M22.6667 5.33333H21.3333V4C21.3333 2.93913 20.9119 1.92172 20.1618 1.17157C19.4116 0.421427 18.3942 0 17.3333 0H4C2.93913 0 1.92172 0.421427 1.17157 1.17157C0.421427 1.92172 0 2.93913 0 4V20C0 21.0609 0.421427 22.0783 1.17157 22.8284C1.92172 23.5786 2.93913 24 4 24H22.6667C23.7275 24 24.7449 23.5786 25.4951 22.8284C26.2452 22.0783 26.6667 21.0609 26.6667 20V9.33333C26.6667 8.27247 26.2452 7.25505 25.4951 6.50491C24.7449 5.75476 23.7275 5.33333 22.6667 5.33333ZM4 2.66667H17.3333C17.687 2.66667 18.0261 2.80714 18.2761 3.05719C18.5262 3.30724 18.6667 3.64638 18.6667 4V5.33333H4C3.64638 5.33333 3.30724 5.19286 3.05719 4.94281C2.80714 4.69276 2.66667 4.35362 2.66667 4C2.66667 3.64638 2.80714 3.30724 3.05719 3.05719C3.30724 2.80714 3.64638 2.66667 4 2.66667ZM24 16H22.6667C22.313 16 21.9739 15.8595 21.7239 15.6095C21.4738 15.3594 21.3333 15.0203 21.3333 14.6667C21.3333 14.313 21.4738 13.9739 21.7239 13.7239C21.9739 13.4738 22.313 13.3333 22.6667 13.3333H24V16ZM24 10.6667H22.6667C21.6058 10.6667 20.5884 11.0881 19.8382 11.8382C19.0881 12.5884 18.6667 13.6058 18.6667 14.6667C18.6667 15.7275 19.0881 16.7449 19.8382 17.4951C20.5884 18.2452 21.6058 18.6667 22.6667 18.6667H24V20C24 20.3536 23.8595 20.6928 23.6095 20.9428C23.3594 21.1929 23.0203 21.3333 22.6667 21.3333H4C3.64638 21.3333 3.30724 21.1929 3.05719 20.9428C2.80714 20.6928 2.66667 20.3536 2.66667 20V7.77333C3.09502 7.92402 3.54591 8.00067 4 8H22.6667C23.0203 8 23.3594 8.14048 23.6095 8.39052C23.8595 8.64057 24 8.97971 24 9.33333V10.6667Z" fill="white"/>
</svg>
