<svg width="18" height="12" viewBox="0 0 18 12" fill="none" xmlns="http://www.w3.org/2000/svg">
<path d="M17.0915 3.74247L13.7581 0.409139C13.6804 0.33144 13.5882 0.269806 13.4867 0.227756C13.3851 0.185706 13.2763 0.164063 13.1665 0.164063C12.9445 0.164063 12.7317 0.252219 12.5748 0.409139C12.4179 0.566059 12.3297 0.778888 12.3297 1.00081C12.3297 1.22272 12.4179 1.43555 12.5748 1.59247L14.4915 3.50081L4.83312 3.50081C4.61211 3.50081 4.40015 3.5886 4.24387 3.74488C4.08759 3.90116 3.99979 4.11313 3.99979 4.33414C3.99979 4.55515 4.08759 4.76711 4.24387 4.92339C4.40015 5.07967 4.61211 5.16747 4.83312 5.16747L16.4998 5.16747C16.6643 5.16665 16.8249 5.11715 16.9613 5.0252C17.0978 4.93326 17.2039 4.80299 17.2665 4.65081C17.3303 4.49905 17.3477 4.33179 17.3166 4.17013C17.2854 4.00847 17.2071 3.85966 17.0915 3.74247ZM13.1665 6.83414L1.49979 6.83414C1.33527 6.83496 1.17467 6.88446 1.03824 6.97641C0.901806 7.06835 0.795641 7.19862 0.733124 7.35081C0.669308 7.50256 0.651872 7.66983 0.683017 7.83148C0.714162 7.99314 0.792493 8.14195 0.908124 8.25914L4.24146 11.5925C4.31893 11.6706 4.41109 11.7326 4.51264 11.7749C4.61419 11.8172 4.72311 11.839 4.83312 11.839C4.94313 11.839 5.05206 11.8172 5.1536 11.7749C5.25515 11.7326 5.34732 11.6706 5.42479 11.5925C5.5029 11.515 5.56489 11.4228 5.6072 11.3213C5.64951 11.2197 5.67129 11.1108 5.67129 11.0008C5.67129 10.8908 5.64951 10.7819 5.6072 10.6803C5.56489 10.5788 5.5029 10.4866 5.42479 10.4091L3.50812 8.5008L13.1665 8.5008C13.3875 8.5008 13.5994 8.41301 13.7557 8.25673C13.912 8.10045 13.9998 7.88849 13.9998 7.66747C13.9998 7.44646 13.912 7.2345 13.7557 7.07822C13.5994 6.92194 13.3875 6.83414 13.1665 6.83414Z" fill="white"/>
</svg>
